<svg width="500.000000pt" height="500.000000pt" viewBox="0 0 500.000000 500.000000" xmlns="http://www.w3.org/2000/svg">
  <g transform="translate(0.000000,500.000000) scale(0.100000,-0.100000)" fill="#ff5757" stroke="none">
    <path d="M0 3843 l0 -1158 309 3 309 3 12 52 c17 68 79 192 125 247 50 60 138
126 202 150 28 10 90 26 137 35 l86 16 88 -16 87 -16 63 -31 63 -30 70 -65 70
-66 34 -71 c18 -39 37 -88 40 -108 l7 -38 -100 0 -99 0 -22 59 -21 59 -45 50
-44 49 -53 24 -53 24 -90 0 -90 -1 -63 -28 -63 -29 -39 -45 -39 -44 -31 -79
c-16 -43 -30 -83 -30 -89 l0 -10 725 0 725 0 0 150 0 150 -212 2 -213 3 0 85
0 85 510 0 510 0 0 -85 0 -85 -202 -3 -203 -2 0 -150 0 -150 275 0 275 0 2
238 3 237 125 3 c69 1 130 -1 136 -5 5 -5 38 -87 72 -183 34 -96 70 -200 81
-230 l19 -55 220 -3 219 -2 35 92 c20 51 57 156 84 233 26 77 53 143 58 148 6
4 67 6 136 5 l125 -3 3 -237 2 -238 335 0 335 0 0 1155 0 1155 -2500 0 -2500
0 0 -1157z" />
    <path d="M4082 2788 c-12 -35 -22 -71 -22 -80 l0 -18 35 0 35 0 0 80 0 80 -13
0 -13 0 -22 -62z" />
    <path d="M3210 2765 l0 -75 35 0 c19 0 35 3 35 8 0 4 -10 37 -22 75 l-22 67
-13 0 -13 0 0 -75z" />
    <path d="M4663 2313 l-333 -3 0 -240 0 -240 -100 0 -100 0 0 240 0 240 -109 0
-109 0 -11 -42 c-7 -24 -42 -131 -80 -238 l-67 -195 -85 -3 -84 -2 -49 142
c-27 79 -64 187 -84 241 l-36 97 -103 0 -103 0 0 -240 0 -240 -100 0 -100 0 0
240 0 240 -275 0 -275 0 0 -240 0 -240 -95 0 -95 0 0 240 0 240 -275 0 -275 0
0 -240 0 -241 -67 3 -68 3 0 83 1 82 -14 0 c-7 0 -33 -21 -57 -47 -85 -94
-203 -143 -340 -143 -96 0 -193 23 -268 62 l-62 32 -61 62 -62 62 -41 82 c-22
44 -46 108 -53 141 l-12 59 -308 0 -308 0 0 -1155 0 -1155 2500 0 2500 0 0
1160 c0 638 -1 1159 -2 1158 -2 -2 -153 -4 -335 -5z" />
    <path d="M825 2278 c4 -18 21 -62 37 -98 l29 -65 41 -42 c23 -23 64 -52 92
-65 l51 -23 110 0 110 0 50 27 c50 26 98 71 127 119 20 31 48 124 48 156 l0
23 -351 0 -351 0 7 -32z" />
    <path d="M3590 2303 c0 -5 14 -50 32 -101 l32 -93 14 3 15 3 28 75 c15 41 28
85 28 98 l1 22 -75 0 c-41 0 -75 -3 -75 -7z" />
  </g>
  <g transform="translate(0.000000,500.000000) scale(0.100000,-0.100000)" fill="#fdf5f3" stroke="none">
    <path d="M1137 3194 c-17 -17 -4 -24 44 -24 l51 0 -4 13 -5 12 -39 3 c-22 2
-43 0 -47 -4z" />
    <path d="M1050 3170 c0 -5 7 -10 15 -10 8 0 15 5 15 10 0 6 -7 10 -15 10 -8 0
-15 -4 -15 -10z" />
    <path d="M1320 3166 c0 -13 68 -41 78 -32 9 10 -11 25 -46 35 l-32 10 0 -13z" />
    <path d="M1837 3173 c-4 -3 -7 -10 -7 -15 l0 -8 526 0 526 0 -4 13 -5 12 -515
3 c-283 1 -518 -1 -521 -5z" />
    <path d="M3010 3165 l0 -15 134 0 134 0 7 -30 7 -30 14 0 15 0 -6 23 c-4 12
-13 27 -21 33 -8 6 -14 16 -14 23 l0 11 -135 0 -135 0 0 -15z" />
    <path d="M4060 3165 l0 -15 135 0 135 0 0 15 0 15 -135 0 -135 0 0 -15z" />
    <path d="M973 3160 c-13 -5 -23 -15 -23 -21 l0 -11 23 6 c12 3 25 6 30 6 4 0
7 7 7 15 0 17 -5 18 -37 5z" />
    <path d="M827 3083 c-12 -11 -8 -23 8 -23 8 0 15 7 15 15 0 16 -12 20 -23 8z" />
    <path d="M1500 3075 c0 -16 27 -32 37 -21 7 7 -16 36 -28 36 -5 0 -9 -7 -9
-15z" />
    <path d="M4017 3083 c-12 -11 -8 -23 8 -23 8 0 15 7 15 15 0 16 -12 20 -23 8z" />
    <path d="M3310 3055 c0 -8 7 -15 15 -15 l14 0 -5 15 c-4 8 -10 15 -15 15 -5 0
-9 -7 -9 -15z" />
    <path d="M3976 2969 c-14 -38 -26 -72 -26 -75 0 -2 6 -4 13 -4 l13 0 22 68
c25 77 26 82 13 82 -5 0 -20 -32 -35 -71z" />
    <path d="M1110 3014 c0 -17 22 -14 28 4 2 7 -3 12 -12 12 -9 0 -16 -7 -16 -16z" />
    <path d="M1222 3018 c6 -18 28 -21 28 -4 0 9 -7 16 -16 16 -9 0 -14 -5 -12
-12z" />
    <path d="M1060 3004 c0 -9 5 -14 12 -12 18 6 21 28 4 28 -9 0 -16 -7 -16 -16z" />
    <path d="M1312 2988 c6 -18 28 -21 28 -4 0 9 -7 16 -16 16 -9 0 -14 -5 -12
-12z" />
    <path d="M2450 2984 c0 -17 22 -14 28 4 2 7 -3 12 -12 12 -9 0 -16 -7 -16 -16z" />
    <path d="M3340 2974 c0 -4 5 -24 12 -45 l11 -39 14 0 14 0 -7 23 c-15 50 -24
67 -34 67 -5 0 -10 -3 -10 -6z" />
    <path d="M707 2953 c-12 -11 -8 -23 8 -23 8 0 15 7 15 15 0 16 -12 20 -23 8z" />
    <path d="M1620 2951 c0 -21 13 -41 26 -41 17 0 17 5 4 31 -11 20 -30 26 -30
10z" />
    <path d="M1380 2942 c0 -14 39 -46 47 -38 4 4 2 15 -3 24 -12 19 -44 29 -44
14z" />
    <path d="M672 2885 l-12 -25 14 0 c13 0 26 20 26 41 0 18 -17 8 -28 -16z" />
    <path d="M890 2885 c0 -8 4 -15 9 -15 5 0 11 7 15 15 l5 15 -14 0 c-8 0 -15
-7 -15 -15z" />
    <path d="M1432 2878 c6 -18 28 -21 28 -4 0 9 -7 16 -16 16 -9 0 -14 -5 -12
-12z" />
    <path d="M4100 2875 c0 -8 7 -15 15 -15 8 0 15 7 15 15 0 8 -7 15 -15 15 -8 0
-15 -7 -15 -15z" />
    <path d="M3190 2791 l0 -78 -162 -6 c-228 -9 -2028 -9 -2226 -1 l-162 7 0 13
c0 21 -21 16 -27 -6 l-5 -20 -304 0 -304 0 0 -200 0 -200 305 0 c168 0 305 -3
305 -7 0 -5 51 -8 114 -8 63 0 112 3 110 7 -5 8 1931 10 2179 1 l177 -6 0
-223 0 -224 -90 0 -90 0 0 -10 0 -10 105 0 105 0 0 240 0 240 91 0 92 0 14
-17 14 -18 5 13 6 12 69 0 69 0 0 -10 c0 -5 7 -10 16 -10 l16 0 -6 16 -6 16
142 -7 c79 -3 151 -9 161 -11 l17 -5 0 11 0 12 208 -4 c114 -2 357 -2 540 0
l332 2 0 200 0 200 -332 3 c-183 1 -393 2 -465 2 -73 -1 -133 2 -133 6 0 4 4
19 10 33 l10 26 -14 0 -14 0 -7 -28 -6 -29 -127 -6 c-170 -9 -457 -9 -466 0
-4 4 -43 6 -86 4 l-79 -3 -7 26 c-3 14 -12 26 -19 26 l-14 0 9 -30 9 -30 -25
0 -24 0 0 85 0 85 -15 0 -15 0 0 -79z m-1589 -201 c-18 -4 -37 -14 -42 -22 -5
-7 -9 -38 -9 -68 l0 -56 12 -12 c7 -7 28 -12 48 -12 l35 -1 -16 -9 -17 -10
-30 11 -30 10 -17 36 -17 36 11 38 c13 44 44 69 81 68 l25 -1 -34 -8z m314
-16 l25 -27 0 -42 0 -42 -21 -27 c-11 -14 -25 -26 -30 -26 -5 0 0 9 11 20 l20
20 0 52 0 51 -17 19 -16 18 -28 0 c-15 0 -35 -7 -43 -16 l-16 -15 0 -59 0 -59
22 -15 c12 -9 18 -16 12 -16 -15 0 -50 41 -59 68 l-6 22 11 35 c14 41 44 65
83 65 l28 0 24 -26z m250 0 l25 -27 0 -42 0 -42 -21 -27 c-11 -14 -25 -26 -30
-26 -5 0 0 9 11 20 l20 20 0 52 0 51 -17 19 -16 18 -28 0 c-15 0 -35 -7 -43
-16 l-16 -15 0 -59 0 -59 22 -15 c12 -9 18 -16 12 -16 -15 0 -50 41 -59 68
l-6 22 11 35 c14 41 44 65 83 65 l28 0 24 -26z m186 16 c-18 -4 -37 -14 -42
-22 -5 -7 -9 -38 -9 -68 l0 -56 12 -12 c7 -7 28 -12 48 -12 l35 -1 -16 -9 -17
-10 -30 11 -30 10 -17 36 -17 36 11 38 c13 44 44 69 81 68 l25 -1 -34 -8z
m199 -79 l0 -90 53 -4 52 -3 -62 -2 -63 -2 0 95 0 95 10 0 10 0 0 -89z m263
82 l-53 -4 0 -40 0 -39 48 -2 47 -2 -47 -3 -48 -4 0 -39 0 -39 53 -4 52 -3
-62 -2 -63 -2 0 95 0 95 63 -2 62 -2 -52 -3z m350 0 l-33 -4 0 -90 0 -89 -10
0 -10 0 0 89 0 90 -32 4 c-18 2 1 4 42 4 41 0 60 -2 43 -4z m167 -66 l24 -67
16 0 16 0 25 68 24 67 15 0 15 0 3 -92 3 -93 -16 0 -15 0 0 50 0 50 -13 0 c-7
0 -20 -23 -30 -51 l-18 -50 -12 4 c-6 2 -18 25 -26 50 l-15 47 -13 0 -13 0 0
-50 0 -50 -15 0 -15 0 0 88 c0 49 3 92 7 96 15 15 29 -3 53 -67z m-1665 43
c10 -11 14 -20 9 -20 -5 0 -15 9 -22 20 -7 11 -11 20 -9 20 2 0 12 -9 22 -20z
m750 0 c10 -11 14 -20 9 -20 -5 0 -15 9 -22 20 -7 11 -11 20 -9 20 2 0 12 -9
22 -20z m-725 -115 c0 -25 -2 -45 -4 -45 -2 0 -11 2 -18 5 l-14 6 4 33 4 34
-24 5 -23 4 38 2 37 1 0 -45z m750 0 c0 -25 -2 -45 -4 -45 -2 0 -11 2 -18 5
l-14 6 4 33 4 34 -24 5 -23 4 38 2 37 1 0 -45z m-573 -52 c-4 -3 -10 -3 -14 0
-3 4 0 7 7 7 7 0 10 -3 7 -7z m250 0 c-4 -3 -10 -3 -14 0 -3 4 0 7 7 7 7 0 10
-3 7 -7z" />
    <path d="M3936 2855 l-5 -15 14 0 c8 0 15 7 15 15 0 8 -4 15 -9 15 -5 0 -11
-7 -15 -15z" />
    <path d="M850 2824 c0 -17 22 -14 28 4 2 7 -3 12 -12 12 -9 0 -16 -7 -16 -16z" />
    <path d="M1462 2828 c6 -18 28 -21 28 -4 0 9 -7 16 -16 16 -9 0 -14 -5 -12
-12z" />
    <path d="M630 2796 c0 -8 -3 -21 -6 -30 l-6 -16 16 0 c9 0 16 3 16 8 0 4 3 17
6 30 l6 22 -16 0 c-9 0 -16 -6 -16 -14z" />
    <path d="M3400 2796 c0 -9 7 -16 16 -16 17 0 14 22 -4 28 -7 2 -12 -3 -12 -12z" />
    <path d="M830 2774 c0 -17 22 -14 28 4 2 7 -3 12 -12 12 -9 0 -16 -7 -16 -16z" />
    <path d="M3727 2273 c-12 -11 -8 -23 8 -23 8 0 15 7 15 15 0 16 -12 20 -23 8z" />
    <path d="M612 2258 c6 -18 28 -21 28 -4 0 9 -7 16 -16 16 -9 0 -14 -5 -12 -12z" />
    <path d="M3604 2228 c3 -13 6 -26 6 -30 0 -5 7 -8 14 -8 l15 0 -10 30 c-6 17
-16 30 -21 30 l-10 0 6 -22z" />
    <path d="M834 2218 c3 -13 6 -26 6 -30 0 -8 30 -11 30 -4 0 17 -22 56 -31 56
l-11 0 6 -22z" />
    <path d="M1497 2223 c-12 -11 -8 -23 8 -23 8 0 15 7 15 15 0 16 -12 20 -23 8z" />
    <path d="M3870 2214 c0 -9 5 -14 12 -12 18 6 21 28 4 28 -9 0 -16 -7 -16 -16z" />
    <path d="M632 2188 c6 -18 28 -21 28 -4 0 9 -7 16 -16 16 -9 0 -14 -5 -12 -12z" />
    <path d="M860 2156 c0 -9 7 -16 16 -16 17 0 14 22 -4 28 -7 2 -12 -3 -12 -12z" />
    <path d="M3630 2151 c0 -5 4 -21 10 -35 10 -28 40 -36 40 -11 0 8 -4 15 -9 15
-5 0 -11 9 -14 20 -5 20 -27 28 -27 11z" />
    <path d="M1457 2133 c-12 -11 -8 -23 8 -23 8 0 15 7 15 15 0 16 -12 20 -23 8z" />
    <path d="M3485 2078 c15 -48 41 -52 29 -4 l-6 26 -15 0 -14 0 6 -22z" />
    <path d="M1407 2072 c-10 -10 -17 -22 -17 -25 0 -12 21 -8 36 7 15 16 19 36 6
36 -5 0 -16 -8 -25 -18z" />
    <path d="M3820 2065 c0 -8 4 -15 9 -15 5 0 11 7 15 15 l5 15 -14 0 c-8 0 -15
-7 -15 -15z" />
    <path d="M690 2065 c0 -12 33 -55 41 -55 5 0 9 7 9 15 0 8 -4 15 -10 15 -5 0
-10 7 -10 15 0 8 -7 15 -15 15 -8 0 -15 -2 -15 -5z" />
    <path d="M1000 2016 c0 -8 14 -19 31 -25 39 -14 49 -14 49 -1 0 5 -16 17 -36
25 -20 8 -38 15 -40 15 -2 0 -4 -6 -4 -14z" />
    <path d="M1550 2005 c0 -8 7 -15 15 -15 8 0 15 7 15 15 0 8 -7 15 -15 15 -8 0
-15 -7 -15 -15z" />
    <path d="M1090 1986 c0 -9 7 -16 16 -16 17 0 14 22 -4 28 -7 2 -12 -3 -12 -12z" />
    <path d="M1492 1947 c-22 -23 -29 -47 -14 -47 10 0 62 53 62 63 0 15 -28 6
-48 -16z" />
    <path d="M780 1951 c0 -12 29 -35 36 -28 11 10 -5 37 -21 37 -8 0 -15 -4 -15
-9z" />
    <path d="M840 1901 c0 -5 7 -11 15 -15 l15 -5 0 14 c0 8 -7 15 -15 15 -8 0
-15 -4 -15 -9z" />
    <path d="M900 1870 c0 -9 31 -30 44 -30 13 0 5 28 -10 34 -23 9 -34 7 -34 -4z" />
    <path d="M1358 1857 c-16 -6 -28 -17 -28 -24 0 -16 3 -16 45 1 19 8 35 20 35
25 0 13 -16 12 -52 -2z" />
    <path d="M3560 1863 c0 -5 7 -16 14 -26 l14 -18 88 3 87 3 4 11 3 10 -90 -4
-90 -4 0 16 c0 9 -7 16 -15 16 -8 0 -15 -3 -15 -7z" />
    <path d="M972 1838 c6 -18 28 -21 28 -4 0 9 -7 16 -16 16 -9 0 -14 -5 -12 -12z" />
    <path d="M1580 1830 l0 -10 70 0 70 0 0 10 0 10 -70 0 -70 0 0 -10z" />
    <path d="M2270 1830 l0 -10 95 0 95 0 0 10 0 10 -95 0 -95 0 0 -10z" />
    <path d="M4130 1830 l0 -10 100 0 100 0 0 10 0 10 -100 0 -100 0 0 -10z" />
    <path d="M1050 1820 c0 -5 7 -10 15 -10 8 0 15 5 15 10 0 6 -7 10 -15 10 -8 0
-15 -4 -15 -10z" />
  </g>
  <g transform="translate(0.000000,500.000000) scale(0.100000,-0.100000)" fill="#fffefe" stroke="none">
    <path d="M1075 3182 c-3 -4 -14 -7 -23 -7 -55 -4 -63 -6 -58 -14 l6 -9 -22 6
-21 5 7 -11 7 -12 -15 6 -16 6 -42 -25 c-24 -14 -60 -38 -80 -55 -52 -41 -109
-112 -101 -124 l6 -11 -11 7 -11 6 -7 -22 c-4 -13 -7 -26 -6 -30 1 -5 -3 -8
-9 -8 -5 0 -7 -4 -4 -10 3 -5 2 -10 -3 -10 -14 0 -35 -57 -26 -71 l7 -12 -13
8 -13 8 5 -21 6 -22 -10 6 -11 7 5 -26 5 -26 -8 5 c-5 3 -9 -2 -9 -10 l0 -15
113 -3 113 -3 3 20 c2 11 4 30 5 42 0 11 4 19 8 17 10 -6 20 34 12 47 l-7 12
10 -6 10 -6 12 27 c7 15 14 29 14 32 6 16 82 73 125 93 28 13 49 26 47 29 -3
2 9 2 26 0 l32 -5 -6 9 -5 9 58 0 c32 0 56 -2 54 -5 -8 -7 79 -29 90 -23 6 3
8 3 4 -2 -5 -5 7 -17 25 -29 17 -11 35 -20 39 -21 8 0 23 -15 24 -23 2 -20 17
-41 25 -36 5 3 8 2 7 -3 -1 -4 2 -18 6 -31 l7 -22 11 6 11 7 -7 -12 c-4 -6 -2
-27 4 -46 l12 -35 110 0 111 0 -7 43 c-8 55 -46 148 -57 141 -5 -3 -6 1 -3 9
l5 15 -58 62 c-32 35 -85 81 -118 102 l-60 39 -17 -5 c-10 -2 -16 0 -13 4 6
10 -31 24 -44 16 -5 -4 -11 -1 -13 5 l-4 11 -121 3 c-67 1 -125 0 -128 -3z
m450 -112 c3 -5 4 -10 1 -10 -3 0 -8 5 -11 10 -3 6 -4 10 -1 10 3 0 8 -4 11
-10z" />
    <path d="M1834 3167 c-3 -8 -4 -52 -2 -98 l3 -84 213 -3 212 -2 0 -143 0 -142
105 0 106 0 -3 145 -3 145 205 0 205 0 0 95 0 95 -19 3 -18 4 6 -11 7 -11
-496 0 -496 0 6 10 6 10 -16 0 c-8 0 -18 -6 -21 -13z" />
    <path d="M3007 3173 c-4 -3 -7 -112 -7 -242 l0 -236 100 3 100 3 0 80 0 80 9
-6 c5 -3 17 -28 26 -55 9 -28 21 -50 26 -50 6 0 7 -5 4 -10 -3 -6 -4 -18 -1
-28 l6 -17 82 3 c46 2 87 7 92 12 l9 9 -13 40 c-7 22 -17 38 -21 35 -5 -3 -7
1 -4 8 6 16 -29 111 -37 102 -4 -3 -4 4 -1 17 l6 22 -10 -6 -11 -7 6 22 5 21
-13 -8 -13 -8 7 12 c8 12 -13 81 -25 81 -4 0 -7 6 -6 13 1 31 -4 48 -12 43
l-9 -6 6 22 5 21 -11 -7 -12 -7 7 16 6 17 -14 9 c-19 12 -32 11 -24 -1 l6 -10
-126 0 -126 0 6 10 c7 11 -8 14 -18 3z" />
    <path d="M4054 3172 c-16 -10 -37 -79 -28 -93 l7 -12 -11 7 -12 7 -2 -18 c0
-10 -1 -24 -1 -30 1 -7 -4 -13 -9 -13 -6 0 -8 -7 -4 -15 l5 -15 -10 0 -11 0 6
-16 6 -15 -12 7 -11 7 5 -21 6 -22 -11 7 -10 6 5 -21 6 -22 -9 6 c-8 5 -10 0
-13 -38 -1 -7 -4 -15 -7 -18 -6 -6 -59 -137 -59 -148 0 -4 43 -7 96 -7 l95 0
-5 18 c-2 9 0 17 6 17 6 0 8 6 5 14 -3 8 -2 16 2 18 4 2 15 21 24 43 l16 40 0
-75 1 -75 110 0 110 0 -2 239 -3 239 -14 5 -14 5 7 -12 7 -11 -126 0 -126 0 6
10 c7 12 -5 13 -21 2z" />
    <path d="M1395 2920 c3 -5 8 -10 11 -10 3 0 2 5 -1 10 -3 6 -8 10 -11 10 -3 0
-2 -4 1 -10z" />
    <path d="M1506 2267 c-4 -21 -3 -43 0 -49 l7 -11 -11 7 -12 7 0 -13 c0 -7 -7
-26 -15 -42 -8 -15 -12 -33 -8 -40 3 -6 3 -8 -2 -4 -9 8 -42 -31 -37 -44 1 -5
-4 -7 -11 -5 -6 1 -11 -4 -10 -10 2 -7 0 -12 -5 -11 -4 1 -32 -11 -62 -27
l-55 -28 -92 -6 -91 -6 5 9 6 9 -26 -5 -26 -5 6 10 6 10 -21 -5 -22 -6 7 11 6
10 -17 -6 -17 -7 6 10 c3 6 1 10 -5 10 -16 0 -108 89 -115 111 l-6 19 -11 -6
-11 -7 6 11 c9 13 -2 44 -13 37 -5 -3 -6 5 -2 17 l5 21 -9 -5 c-5 -4 -10 8
-11 25 -1 17 -8 34 -15 39 -7 4 -58 7 -113 6 l-100 -3 -3 -24 -4 -23 13 7 12
8 -7 -12 c-10 -15 3 -73 15 -66 l9 6 -6 -14 c-12 -32 123 -246 146 -232 5 3
12 0 16 -6 l7 -12 -14 7 c-8 4 -1 -4 16 -18 16 -14 31 -23 33 -21 2 2 13 -6
24 -17 l20 -20 14 6 15 6 -7 -12 -7 -11 17 6 17 7 -6 -9 c-7 -12 31 -24 46
-15 l12 7 -6 -10 -7 -11 35 -6 c20 -4 39 -4 44 -1 6 3 12 1 16 -5 l6 -10 84 0
c46 0 107 5 135 11 l50 11 -6 10 -7 11 12 -7 c6 -4 20 -4 31 -1 l20 6 -6 11
-7 11 11 -7 12 -7 43 30 c24 16 59 48 79 70 20 23 37 41 39 41 2 0 4 -36 4
-81 l0 -80 78 -2 77 -2 0 240 0 240 -109 0 -109 0 -6 -38z m24 -310 c0 -2 -12
-14 -27 -28 l-28 -24 24 28 c23 25 31 32 31 24z" />
    <path d="M2260 2065 l0 -240 105 0 105 0 0 240 0 240 -105 0 -105 0 0 -240z" />
    <path d="M3000 2065 l0 -240 103 0 102 0 -3 237 -3 237 -99 3 -100 3 0 -240z" />
    <path d="M3410 2292 c0 -7 4 -10 10 -7 l10 6 -6 -14 c-3 -8 8 -50 25 -93 17
-44 31 -85 31 -92 0 -7 4 -11 9 -8 l9 6 -6 -22 -5 -21 11 7 12 7 -5 -13 c-6
-16 59 -201 67 -192 4 3 4 -2 2 -13 l-5 -18 97 2 98 2 38 107 c21 59 36 114
34 121 -3 7 -1 13 3 13 13 0 54 127 45 141 l-7 12 11 -7 11 -7 10 38 c6 21 7
41 3 45 -4 4 -45 8 -92 9 l-85 2 1 -21 c0 -12 -2 -19 -6 -17 -3 2 -14 -20 -24
-48 -10 -29 -23 -63 -29 -77 -6 -14 -9 -29 -8 -33 1 -5 -3 -6 -8 -3 -5 3 -7
16 -3 28 l5 21 -9 -5 c-5 -4 -10 6 -11 20 0 15 -6 28 -12 30 -5 2 -7 10 -4 18
l5 14 -12 0 c-6 0 -9 4 -6 9 3 5 1 22 -4 37 l-10 29 -95 0 -95 0 0 -13z" />
    <path d="M4120 2065 l0 -240 110 0 110 0 0 240 0 240 -110 0 -110 0 0 -240z" />
  </g>
  <g transform="translate(0.000000,500.000000) scale(0.100000,-0.100000)" fill="#febcbc" stroke="none">
    <path d="M1108 3183 c7 -3 16 -2 19 1 4 3 -2 6 -13 5 l-19 -1 13 -5z" />
    <path d="M1238 3183 c7 -3 16 -2 19 1 4 3 -2 6 -13 5 l-19 -1 13 -5z" />
    <path d="M975 3160 l-20 -9 15 0 c8 0 24 4 35 9 l20 9 -15 0 c-8 0 -24 -4 -35
-9z" />
    <path d="M1410 3141 c0 -5 7 -11 15 -15 8 -3 15 -1 15 3 0 5 -7 11 -15 15 -8
3 -15 1 -15 -3z" />
    <path d="M4026 3115 c-3 -8 -1 -15 4 -15 6 0 10 7 10 15 0 8 -2 15 -4 15 -2 0
-6 -7 -10 -15z" />
    <path d="M849 3093 l-14 -18 18 14 c9 7 17 15 17 17 0 8 -8 3 -21 -13z" />
    <path d="M3320 3070 c0 -7 3 -10 7 -7 3 4 3 10 0 14 -4 3 -7 0 -7 -7z" />
    <path d="M799 3053 l-14 -18 18 14 c9 7 17 15 17 17 0 8 -8 3 -21 -13z" />
    <path d="M749 3003 l-14 -18 18 14 c9 7 17 15 17 17 0 8 -8 3 -21 -13z" />
    <path d="M3340 3005 c0 -8 4 -15 10 -15 5 0 7 7 4 15 -4 8 -8 15 -10 15 -2 0
-4 -7 -4 -15z" />
    <path d="M3990 3010 c0 -7 3 -10 7 -7 3 4 3 10 0 14 -4 3 -7 0 -7 -7z" />
    <path d="M1030 2990 c-24 -15 -7 -19 20 -5 l25 14 -15 0 c-8 1 -22 -3 -30 -9z" />
    <path d="M1281 2996 c2 -2 20 -11 39 -20 l35 -17 -25 20 c-14 11 -31 21 -39
21 -8 0 -12 -2 -10 -4z" />
    <path d="M975 2955 l-30 -25 32 17 c18 10 33 21 33 26 0 10 -2 9 -35 -18z" />
    <path d="M1632 2950 c12 -16 23 -30 25 -30 2 0 -4 14 -14 30 -9 17 -21 30 -25
30 -5 0 1 -13 14 -30z" />
    <path d="M914 2898 l-7 -11 11 7 c12 7 16 16 8 16 -3 0 -8 -5 -12 -12z" />
    <path d="M3381 2894 l1 -19 5 13 c3 7 2 16 -1 19 -3 4 -6 -2 -5 -13z" />
    <path d="M3951 2894 l1 -19 5 13 c3 7 2 16 -1 19 -3 4 -6 -2 -5 -13z" />
    <path d="M1680 2845 c0 -8 4 -15 10 -15 5 0 7 7 4 15 -4 8 -8 15 -10 15 -2 0
-4 -7 -4 -15z" />
    <path d="M3890 2735 l-12 -36 -214 3 c-118 2 -214 0 -214 -4 0 -5 99 -8 219
-8 l219 0 12 36 c7 19 10 38 7 40 -3 3 -10 -11 -17 -31z" />
    <path d="M610 2712 l0 -12 -307 -2 -308 -3 304 -2 305 -3 10 10 c5 5 7 13 3
17 -4 3 -7 1 -7 -5z" />
    <path d="M3265 2710 l8 -13 -32 5 c-17 2 -31 1 -31 -4 0 -4 16 -8 35 -8 35 0
46 12 23 26 l-11 7 8 -13z" />
    <path d="M1545 2700 l-720 -5 723 -3 722 -2 0 10 c0 6 -1 9 -2 8 -2 -2 -327
-5 -723 -8z" />
    <path d="M2460 2698 c0 -5 124 -8 275 -8 151 0 275 3 275 8 0 4 -124 7 -275 7
-151 0 -275 -3 -275 -7z" />
    <path d="M4060 2698 c0 -5 16 -8 35 -8 19 0 35 3 35 8 0 4 -16 7 -35 7 -19 0
-35 -3 -35 -7z" />
    <path d="M4330 2698 c0 -5 152 -7 338 -6 338 2 300 6 -116 10 -122 2 -222 0
-222 -4z" />
    <path d="M153 2303 c87 -2 227 -2 310 0 84 1 13 3 -158 3 -171 0 -239 -2 -152
-3z" />
    <path d="M945 2303 c302 -7 575 -7 575 0 0 4 -156 6 -347 5 -192 -1 -294 -4
-228 -5z" />
    <path d="M1720 2303 c0 -5 124 -8 275 -8 151 0 275 3 275 8 0 4 -124 7 -275 7
-151 0 -275 -3 -275 -7z" />
    <path d="M2460 2303 c0 -5 124 -8 275 -8 151 0 275 3 275 8 0 4 -124 7 -275 7
-151 0 -275 -3 -275 -7z" />
    <path d="M3210 2303 c0 -5 47 -8 105 -8 58 0 105 3 105 8 0 4 -47 7 -105 7
-58 0 -105 -3 -105 -7z" />
    <path d="M3590 2303 c0 -5 36 -8 80 -8 44 0 80 3 80 8 0 4 -36 7 -80 7 -44 0
-80 -3 -80 -7z" />
    <path d="M3950 2304 c84 -8 180 -8 180 -1 0 4 -48 6 -107 5 -60 -1 -92 -3 -73
-4z" />
    <path d="M4330 2303 c0 -5 100 -7 222 -5 416 4 454 8 116 10 -186 1 -338 -1
-338 -5z" />
    <path d="M3426 2245 c4 -8 8 -15 10 -15 2 0 4 7 4 15 0 8 -4 15 -10 15 -5 0
-7 -7 -4 -15z" />
    <path d="M3610 2250 c0 -7 3 -10 7 -7 3 4 3 10 0 14 -4 3 -7 0 -7 -7z" />
    <path d="M3890 2225 c0 -8 2 -15 4 -15 2 0 6 7 10 15 3 8 1 15 -4 15 -6 0 -10
-7 -10 -15z" />
    <path d="M1486 2195 c-3 -8 -1 -15 4 -15 6 0 10 7 10 15 0 8 -2 15 -4 15 -2 0
-6 -7 -10 -15z" />
    <path d="M860 2176 c0 -2 7 -9 15 -16 l15 -13 -6 17 c-3 9 -10 16 -15 16 -5 0
-9 -2 -9 -4z" />
    <path d="M646 2145 c4 -8 8 -15 10 -15 2 0 4 7 4 15 0 8 -4 15 -10 15 -5 0 -7
-7 -4 -15z" />
    <path d="M3665 2121 c-3 -5 -1 -12 5 -16 l10 -6 0 15 c0 18 -6 21 -15 7z" />
    <path d="M960 2056 c0 -2 8 -10 18 -17 l17 -14 -14 18 c-13 16 -21 21 -21 13z" />
    <path d="M3816 2014 c-10 -38 0 -41 12 -5 6 17 7 31 3 31 -5 0 -12 -12 -15
-26z" />
    <path d="M720 2016 c0 -2 8 -10 18 -17 l17 -14 -14 18 c-13 16 -21 21 -21 13z" />
    <path d="M1118 1983 c7 -3 16 -2 19 1 4 3 -2 6 -13 5 l-19 -1 13 -5z" />
    <path d="M930 1846 c0 -2 7 -6 15 -10 8 -3 15 -1 15 4 0 6 -7 10 -15 10 -8 0
-15 -2 -15 -4z" />
    <path d="M1375 1840 l-6 -10 15 6 c18 7 21 14 7 14 -6 0 -13 -4 -16 -10z" />
    <path d="M1716 1835 c-3 -8 -1 -15 4 -15 6 0 10 7 10 15 0 8 -2 15 -4 15 -2 0
-6 -7 -10 -15z" />
    <path d="M1328 1823 c7 -3 16 -2 19 1 4 3 -2 6 -13 5 l-19 -1 13 -5z" />
    <path d="M1118 1803 c7 -3 16 -2 19 1 4 3 -2 6 -13 5 l-19 -1 13 -5z" />
    <path d="M1218 1803 c7 -3 16 -2 19 1 4 3 -2 6 -13 5 l-19 -1 13 -5z" />
  </g>
  <g transform="translate(0.000000,500.000000) scale(0.100000,-0.100000)" fill="#000000" stroke="none">
    <path d="M1545 2585 l-25 -24 0 -50 c0 -28 5 -61 11 -75 l12 -25 34 -12 35
-11 39 18 39 19 0 43 0 42 -40 0 -40 0 0 -15 0 -15 25 0 c14 0 25 -3 25 -6 0
-3 -5 -14 -10 -25 l-11 -19 -29 0 -29 0 -15 22 c-19 27 -20 58 -4 93 l11 25
25 7 25 6 18 -21 c21 -27 39 -28 39 -3 0 27 -37 51 -78 51 l-33 0 -24 -25z" />
    <path d="M1795 2585 l-25 -24 0 -55 0 -55 24 -28 24 -28 41 0 41 0 21 21 21
21 5 41 c7 51 -2 87 -27 112 l-20 20 -40 0 -41 0 -24 -25z m98 -22 c15 -18 22
-47 19 -90 l-2 -23 -25 -16 -25 -16 -25 16 c-41 27 -46 94 -9 130 20 21 47 20
67 -1z" />
    <path d="M2045 2585 l-25 -24 0 -55 0 -55 24 -28 24 -28 41 0 41 0 21 21 21
21 5 41 c7 51 -2 87 -27 112 l-20 20 -40 0 -41 0 -24 -25z m98 -22 c15 -18 22
-47 19 -90 l-2 -23 -25 -16 -25 -16 -25 16 c-41 27 -46 94 -9 130 20 21 47 20
67 -1z" />
    <path d="M2295 2585 l-25 -24 0 -50 c0 -28 5 -61 11 -75 l12 -25 34 -12 35
-11 39 18 39 19 0 43 0 42 -40 0 -40 0 0 -15 0 -15 25 0 c14 0 25 -3 25 -6 0
-3 -5 -14 -10 -25 l-11 -19 -29 0 -29 0 -15 22 c-19 27 -20 58 -4 93 l11 25
25 7 25 6 18 -21 c21 -27 39 -28 39 -3 0 27 -37 51 -78 51 l-33 0 -24 -25z" />
    <path d="M2530 2505 l0 -105 65 0 65 0 0 15 0 15 -50 0 -50 0 0 90 0 90 -15 0
-15 0 0 -105z" />
    <path d="M2730 2505 l0 -105 70 0 70 0 0 15 0 15 -50 0 -50 0 0 30 0 30 45 0
45 0 0 15 0 15 -45 0 -45 0 0 30 0 30 50 0 50 0 0 15 0 15 -70 0 -70 0 0 -105z" />
    <path d="M3040 2595 l0 -15 30 0 30 0 0 -90 0 -90 20 0 20 0 0 90 0 90 30 0
30 0 0 15 0 15 -80 0 -80 0 0 -15z" />
    <path d="M3270 2506 l0 -106 15 0 14 0 3 68 3 67 23 -67 24 -68 18 0 18 0 24
68 23 67 3 -67 3 -68 14 0 15 0 0 106 0 105 -22 -3 -21 -3 -26 -72 c-14 -40
-28 -73 -31 -73 -3 0 -17 33 -31 73 l-26 72 -21 3 -22 3 0 -105z" />
  </g>
  <g transform="translate(0.000000,500.000000) scale(0.100000,-0.100000)" fill="#ff8c8c" stroke="none">
    <path d="M1088 3183 c7 -3 16 -2 19 1 4 3 -2 6 -13 5 l-19 -1 13 -5z" />
    <path d="M1258 3183 c7 -3 16 -2 19 1 4 3 -2 6 -13 5 l-19 -1 13 -5z" />
    <path d="M1033 3173 c4 -3 10 -3 14 0 3 4 0 7 -7 7 -7 0 -10 -3 -7 -7z" />
    <path d="M1835 3169 c-4 -6 -5 -12 -2 -15 2 -3 7 2 10 11 7 17 1 20 -8 4z" />
    <path d="M4334 2930 c0 -135 2 -190 3 -122 2 67 2 177 0 245 -1 67 -3 12 -3
-123z" />
    <path d="M954 3148 l-7 -11 11 7 c7 4 12 9 12 12 0 8 -9 4 -16 -8z" />
    <path d="M1370 3156 c0 -2 7 -7 16 -10 l15 -6 -6 10 c-6 10 -25 14 -25 6z" />
    <path d="M4030 3129 c0 -5 5 -7 10 -4 6 3 10 8 10 11 0 2 -4 4 -10 4 -5 0 -10
-5 -10 -11z" />
    <path d="M1450 3121 c0 -5 7 -12 16 -15 l17 -6 -13 15 c-14 17 -20 19 -20 6z" />
    <path d="M819 3073 l-14 -18 18 14 c9 7 17 15 17 17 0 8 -8 3 -21 -13z" />
    <path d="M1510 3086 c0 -2 8 -10 18 -17 l17 -14 -14 18 c-13 16 -21 21 -21 13z" />
    <path d="M3335 3020 c3 -5 8 -10 11 -10 3 0 2 5 -1 10 -3 6 -8 10 -11 10 -3 0
-2 -4 1 -10z" />
    <path d="M1248 3003 c7 -3 16 -2 19 1 4 3 -2 6 -13 5 l-19 -1 13 -5z" />
    <path d="M1602 2990 c7 -11 17 -20 22 -20 5 0 1 9 -9 20 -10 11 -20 20 -22 20
-2 0 2 -9 9 -20z" />
    <path d="M1832 3000 l5 -15 211 -3 211 -2 4 -148 3 -147 2 153 2 152 -208 0
-208 0 -13 13 -13 12 4 -15z" />
    <path d="M734 2988 l-7 -11 11 7 c7 4 12 9 12 12 0 8 -9 4 -16 -8z" />
    <path d="M2665 2990 l-200 -6 203 -2 202 -2 0 10 c0 6 -1 9 -2 8 -2 -1 -93 -5
-203 -8z" />
    <path d="M3976 2975 c-3 -9 -6 -22 -5 -28 0 -7 5 -1 10 12 5 13 8 26 5 28 -2
2 -6 -3 -10 -12z" />
    <path d="M709 2953 l-14 -18 18 14 c9 7 17 15 17 17 0 8 -8 3 -21 -13z" />
    <path d="M1343 2963 c4 -3 10 -3 14 0 3 4 0 7 -7 7 -7 0 -10 -3 -7 -7z" />
    <path d="M1635 2950 c3 -5 8 -10 11 -10 3 0 2 5 -1 10 -3 6 -8 10 -11 10 -3 0
-2 -4 1 -10z" />
    <path d="M1370 2947 c0 -2 15 -16 33 -33 l32 -29 -29 33 c-28 30 -36 37 -36
29z" />
    <path d="M3375 2910 c3 -5 8 -10 11 -10 3 0 2 5 -1 10 -3 6 -8 10 -11 10 -3 0
-2 -4 1 -10z" />
    <path d="M3954 2908 l-7 -11 11 7 c12 7 16 16 8 16 -3 0 -8 -5 -12 -12z" />
    <path d="M3386 2877 c3 -10 9 -15 12 -12 3 3 0 11 -7 18 l-12 12 7 -18z" />
    <path d="M3945 2879 c-4 -6 -5 -12 -2 -15 2 -3 7 2 10 11 7 17 1 20 -8 4z" />
    <path d="M1675 2860 c3 -5 8 -10 11 -10 3 0 2 5 -1 10 -3 6 -8 10 -11 10 -3 0
-2 -4 1 -10z" />
    <path d="M655 2849 c-4 -6 -5 -12 -2 -15 2 -3 7 2 10 11 7 17 1 20 -8 4z" />
    <path d="M871 2833 l-11 -28 15 19 c8 11 15 23 15 28 0 15 -7 8 -19 -19z" />
    <path d="M1455 2845 c4 -11 10 -28 12 -37 3 -10 9 -18 14 -18 5 0 2 15 -7 33
-19 38 -30 50 -19 22z" />
    <path d="M3401 2845 c0 -5 4 -19 9 -30 l9 -20 0 15 c0 8 -4 22 -9 30 -5 8 -9
11 -9 5z" />
    <path d="M3930 2840 c0 -7 3 -10 7 -7 3 4 3 10 0 14 -4 3 -7 0 -7 -7z" />
    <path d="M627 2783 c-7 -39 -1 -40 11 -4 6 17 7 31 3 31 -5 0 -11 -12 -14 -27z" />
    <path d="M4090 2800 c0 -7 3 -10 7 -7 3 4 3 10 0 14 -4 3 -7 0 -7 -7z" />
    <path d="M1696 2775 c4 -8 8 -15 10 -15 2 0 4 7 4 15 0 8 -4 15 -10 15 -5 0
-7 -7 -4 -15z" />
    <path d="M4080 2770 c0 -7 3 -10 7 -7 3 4 3 10 0 14 -4 3 -7 0 -7 -7z" />
    <path d="M3442 2719 c6 -16 12 -29 13 -27 6 6 -8 58 -16 58 -4 0 -3 -14 3 -31z" />
    <path d="M3890 2739 c0 -5 5 -7 10 -4 6 3 10 8 10 11 0 2 -4 4 -10 4 -5 0 -10
-5 -10 -11z" />
    <path d="M4070 2740 c0 -7 3 -10 7 -7 3 4 3 10 0 14 -4 3 -7 0 -7 -7z" />
    <path d="M4060 2710 c0 -7 3 -10 7 -7 3 4 3 10 0 14 -4 3 -7 0 -7 -7z" />
    <path d="M2264 2065 c0 -137 2 -195 3 -128 2 67 2 179 0 250 -1 70 -3 16 -3
-122z" />
    <path d="M4334 2065 c0 -137 2 -195 3 -128 2 67 2 179 0 250 -1 70 -3 16 -3
-122z" />
    <path d="M3719 2253 c-5 -16 -15 -41 -21 -56 -6 -15 -9 -30 -6 -32 2 -3 14 22
26 55 12 33 19 60 16 60 -2 0 -9 -12 -15 -27z" />
    <path d="M841 2245 c0 -5 4 -19 9 -30 l9 -20 0 15 c0 8 -4 22 -9 30 -5 8 -9
11 -9 5z" />
    <path d="M3430 2230 c0 -5 5 -10 11 -10 5 0 7 5 4 10 -3 6 -8 10 -11 10 -2 0
-4 -4 -4 -10z" />
    <path d="M1490 2210 c0 -7 3 -10 7 -7 3 4 3 10 0 14 -4 3 -7 0 -7 -7z" />
    <path d="M3884 2208 l-7 -11 11 7 c7 4 12 9 12 12 0 8 -9 4 -16 -8z" />
    <path d="M3640 2160 c0 -7 3 -10 7 -7 3 4 3 10 0 14 -4 3 -7 0 -7 -7z" />
    <path d="M660 2126 c0 -11 30 -66 36 -66 2 0 -3 15 -12 33 -19 36 -24 44 -24
33z" />
    <path d="M910 2105 c0 -7 50 -55 57 -55 4 0 -6 14 -22 30 -28 30 -35 34 -35
25z" />
    <path d="M1429 2093 l-14 -18 18 14 c9 7 17 15 17 17 0 8 -8 3 -21 -13z" />
    <path d="M3500 2035 c0 -8 4 -15 10 -15 5 0 7 7 4 15 -4 8 -8 15 -10 15 -2 0
-4 -7 -4 -15z" />
    <path d="M980 2036 c0 -2 7 -7 16 -10 l15 -6 -6 10 c-6 10 -25 14 -25 6z" />
    <path d="M715 2020 c3 -5 8 -10 11 -10 3 0 2 5 -1 10 -3 6 -8 10 -11 10 -3 0
-2 -4 1 -10z" />
    <path d="M774 1953 c22 -24 42 -40 45 -38 2 3 2 6 0 8 -2 1 -22 18 -44 37
l-40 35 39 -42z" />
    <path d="M1138 1983 c7 -3 16 -2 19 1 4 3 -2 6 -13 5 l-19 -1 13 -5z" />
    <path d="M3805 1980 c-3 -5 -1 -10 4 -10 6 0 11 5 11 10 0 6 -2 10 -4 10 -3 0
-8 -4 -11 -10z" />
    <path d="M1504 1928 l-29 -33 33 29 c30 28 37 36 29 36 -2 0 -16 -15 -33 -32z" />
    <path d="M3000 1830 c0 -7 3 -10 7 -7 3 4 3 10 0 14 -4 3 -7 0 -7 -7z" />
    <path d="M1028 1813 c7 -3 16 -2 19 1 4 3 -2 6 -13 5 l-19 -1 13 -5z" />
    <path d="M1088 1803 c7 -3 16 -2 19 1 4 3 -2 6 -13 5 l-19 -1 13 -5z" />
    <path d="M1238 1803 c7 -3 16 -2 19 1 4 3 -2 6 -13 5 l-19 -1 13 -5z" />
  </g>
  <g transform="translate(0.000000,500.000000) scale(0.100000,-0.100000)" fill="#ff7373" stroke="none">
    <path d="M1137 3193 c-3 -5 17 -8 43 -8 26 0 46 3 43 8 -2 4 -22 7 -43 7 -21
0 -41 -3 -43 -7z" />
    <path d="M1313 3173 c4 -3 10 -3 14 0 3 4 0 7 -7 7 -7 0 -10 -3 -7 -7z" />
    <path d="M2020 3173 c476 -7 858 -7 853 0 -2 4 -237 6 -521 5 -284 -2 -434 -4
-332 -5z" />
    <path d="M3143 3170 l139 -5 14 -25 15 -25 -7 25 c-4 14 -12 28 -18 32 -6 4
-72 7 -146 6 l-135 -2 138 -6z" />
    <path d="M4054 3172 c-14 -9 -26 -42 -15 -42 5 0 11 9 14 20 l5 19 138 4 139
3 -135 2 c-74 1 -140 -2 -146 -6z" />
    <path d="M1350 3166 c0 -2 7 -7 16 -10 l15 -6 -6 10 c-6 10 -25 14 -25 6z" />
    <path d="M895 3125 c-22 -13 -36 -25 -32 -25 11 0 87 39 87 45 0 10 -16 4 -55
-20z" />
    <path d="M1405 3140 c3 -5 8 -10 11 -10 2 0 4 5 4 10 0 6 -5 10 -11 10 -5 0
-7 -4 -4 -10z" />
    <path d="M1430 3131 c0 -5 7 -11 15 -15 8 -3 15 -1 15 3 0 5 -7 11 -15 15 -8
3 -15 1 -15 -3z" />
    <path d="M1486 3095 c10 -8 23 -15 28 -15 6 0 1 7 -10 15 -10 8 -23 15 -28 15
-6 0 -1 -7 10 -15z" />
    <path d="M4012 3073 c-6 -20 -10 -38 -8 -40 1 -2 10 15 19 37 8 22 12 40 8 40
-4 0 -13 -17 -19 -37z" />
    <path d="M833 3083 c4 -3 10 -3 14 0 3 4 0 7 -7 7 -7 0 -10 -3 -7 -7z" />
    <path d="M3315 3080 c3 -5 8 -10 11 -10 3 0 2 5 -1 10 -3 6 -8 10 -11 10 -3 0
-2 -4 1 -10z" />
    <path d="M775 3039 c-11 -17 1 -21 15 -4 l12 15 -10 0 c-6 0 -14 -5 -17 -11z" />
    <path d="M1115 3010 l-20 -9 17 0 c9 -1 20 4 23 9 7 11 7 11 -20 0z" />
    <path d="M1227 3009 c7 -7 15 -10 18 -7 3 3 -2 9 -12 12 l-18 7 12 -12z" />
    <path d="M1070 3000 l-15 -10 12 0 c6 0 15 5 18 10 8 12 4 12 -15 0z" />
    <path d="M1265 3000 c3 -5 11 -10 16 -10 6 0 7 5 4 10 -3 6 -11 10 -16 10 -6
0 -7 -4 -4 -10z" />
    <path d="M1040 2990 c0 -7 3 -10 7 -7 3 4 3 10 0 14 -4 3 -7 0 -7 -7z" />
    <path d="M1300 2990 c0 -7 3 -10 7 -7 3 4 3 10 0 14 -4 3 -7 0 -7 -7z" />
    <path d="M3345 2990 c3 -5 8 -10 11 -10 2 0 4 5 4 10 0 6 -5 10 -11 10 -5 0
-7 -4 -4 -10z" />
    <path d="M727 2983 c-4 -3 -7 -11 -7 -17 l0 -10 12 12 c6 6 9 14 7 17 -3 3 -9
2 -12 -2z" />
    <path d="M1010 2980 c-8 -5 -12 -11 -9 -14 2 -3 11 -1 19 4 8 5 12 11 9 14 -2
3 -11 1 -19 -4z" />
    <path d="M1613 2973 c4 -3 10 -3 14 0 3 4 0 7 -7 7 -7 0 -10 -3 -7 -7z" />
    <path d="M3974 2968 l-7 -11 11 7 c12 7 16 16 8 16 -3 0 -8 -5 -12 -12z" />
    <path d="M700 2940 c0 -7 3 -10 7 -7 3 4 3 10 0 14 -4 3 -7 0 -7 -7z" />
    <path d="M1666 2887 c3 -10 9 -15 12 -12 3 3 0 11 -7 18 l-12 12 7 -18z" />
    <path d="M1430 2881 c0 -6 4 -13 10 -16 l10 -6 -6 15 c-7 18 -14 21 -14 7z" />
    <path d="M4101 2830 l-10 -31 9 6 c6 4 10 14 11 23 l0 17 9 -20 9 -20 0 28 c1
36 -14 34 -28 -3z" />
    <path d="M1685 2830 c3 -5 8 -10 11 -10 2 0 4 5 4 10 0 6 -5 10 -11 10 -5 0
-7 -4 -4 -10z" />
    <path d="M3210 2815 c0 -14 2 -25 4 -25 2 0 6 11 8 25 3 14 1 25 -3 25 -5 0
-9 -11 -9 -25z" />
    <path d="M3405 2830 c3 -5 8 -10 11 -10 3 0 2 5 -1 10 -3 6 -8 10 -11 10 -3 0
-2 -4 1 -10z" />
    <path d="M635 2810 c-3 -5 -1 -10 4 -10 6 0 11 5 11 10 0 6 -2 10 -4 10 -3 0
-8 -4 -11 -10z" />
    <path d="M3235 2798 c4 -13 11 -27 16 -33 5 -5 4 5 -2 23 -12 36 -24 44 -14
10z" />
    <path d="M850 2784 c-19 -51 -19 -54 -15 -54 8 0 36 73 30 78 -2 3 -9 -8 -15
-24z" />
    <path d="M1690 2796 c0 -9 5 -16 10 -16 6 0 10 4 10 9 0 6 -4 13 -10 16 l-10
6 0 -15z" />
    <path d="M3416 2797 c3 -10 9 -15 12 -12 3 3 0 11 -7 18 l-12 12 7 -18z" />
    <path d="M1475 2790 c3 -5 8 -10 11 -10 2 0 4 5 4 10 0 6 -5 10 -11 10 -5 0
-7 -4 -4 -10z" />
    <path d="M1695 2750 c-3 -5 -1 -10 4 -10 6 0 11 5 11 10 0 6 -2 10 -4 10 -3 0
-8 -4 -11 -10z" />
    <path d="M3430 2750 c0 -5 5 -10 11 -10 5 0 7 5 4 10 -3 6 -8 10 -11 10 -2 0
-4 -4 -4 -10z" />
    <path d="M3893 2743 c4 -3 10 -3 14 0 3 4 0 7 -7 7 -7 0 -10 -3 -7 -7z" />
    <path d="M3260 2720 c0 -7 3 -10 7 -7 3 4 3 10 0 14 -4 3 -7 0 -7 -7z" />
    <path d="M3880 2709 c0 -5 5 -7 10 -4 6 3 10 8 10 11 0 2 -4 4 -10 4 -5 0 -10
-5 -10 -11z" />
    <path d="M3416 2280 c7 -28 12 -35 18 -29 2 2 -2 15 -10 29 l-15 25 7 -25z" />
    <path d="M830 2280 c0 -7 3 -10 7 -7 3 4 3 10 0 14 -4 3 -7 0 -7 -7z" />
    <path d="M610 2261 c0 -6 4 -13 10 -16 l10 -6 -6 15 c-7 18 -14 21 -14 7z" />
    <path d="M1500 2250 c0 -7 3 -10 7 -7 3 4 3 10 0 14 -4 3 -7 0 -7 -7z" />
    <path d="M3895 2240 c-3 -5 -1 -10 4 -10 6 0 11 5 11 10 0 6 -2 10 -4 10 -3 0
-8 -4 -11 -10z" />
    <path d="M845 2230 c3 -5 8 -10 11 -10 3 0 2 5 -1 10 -3 6 -8 10 -11 10 -3 0
-2 -4 1 -10z" />
    <path d="M620 2221 c0 -5 5 -13 10 -16 6 -3 10 -2 10 4 0 5 -4 13 -10 16 -5 3
-10 2 -10 -4z" />
    <path d="M1494 2218 l-7 -11 11 7 c7 4 12 9 12 12 0 8 -9 4 -16 -8z" />
    <path d="M3447 2188 c24 -63 35 -69 16 -10 -9 29 -20 52 -25 52 -4 0 0 -19 9
-42z" />
    <path d="M3694 2188 l-7 -11 11 7 c12 7 16 16 8 16 -3 0 -8 -5 -12 -12z" />
    <path d="M860 2180 c0 -5 5 -10 11 -10 5 0 7 5 4 10 -3 6 -8 10 -11 10 -2 0
-4 -4 -4 -10z" />
    <path d="M1480 2179 c0 -5 5 -7 10 -4 6 3 10 8 10 11 0 2 -4 4 -10 4 -5 0 -10
-5 -10 -11z" />
    <path d="M640 2160 c0 -5 5 -10 11 -10 5 0 7 5 4 10 -3 6 -8 10 -11 10 -2 0
-4 -4 -4 -10z" />
    <path d="M3676 2139 l-15 -31 13 11 c12 11 29 51 21 51 -2 0 -10 -14 -19 -31z" />
    <path d="M1461 2142 c-17 -31 -13 -40 5 -14 9 13 14 26 11 29 -3 2 -10 -4 -16
-15z" />
    <path d="M3646 2147 c3 -10 9 -15 12 -12 3 3 0 11 -7 18 l-12 12 7 -18z" />
    <path d="M3852 2111 c-6 -17 -9 -31 -6 -31 7 0 25 52 20 57 -2 2 -8 -10 -14
-26z" />
    <path d="M3485 2078 c4 -13 11 -27 16 -33 5 -5 4 5 -2 23 -12 36 -24 44 -14
10z" />
    <path d="M3825 2040 c-3 -5 -1 -10 4 -10 6 0 11 5 11 10 0 6 -2 10 -4 10 -3 0
-8 -4 -11 -10z" />
    <path d="M1328 2019 c-36 -19 -47 -29 -30 -29 4 0 25 11 47 25 48 29 36 32
-17 4z" />
    <path d="M1000 2026 c0 -2 7 -7 16 -10 l15 -6 -6 10 c-6 10 -25 14 -25 6z" />
    <path d="M3539 1925 c20 -58 39 -105 42 -105 3 0 -11 47 -30 105 -20 58 -39
105 -42 105 -4 0 10 -47 30 -105z" />
    <path d="M3815 2010 c-3 -5 -1 -10 4 -10 6 0 11 5 11 10 0 6 -2 10 -4 10 -3 0
-8 -4 -11 -10z" />
    <path d="M1552 1987 c-31 -33 -27 -43 4 -12 14 14 24 28 22 31 -3 2 -14 -6
-26 -19z" />
    <path d="M740 1990 c0 -7 3 -10 7 -7 3 4 3 10 0 14 -4 3 -7 0 -7 -7z" />
    <path d="M1090 1996 c0 -2 7 -7 16 -10 l15 -6 -6 10 c-6 10 -25 14 -25 6z" />
    <path d="M1255 1990 c-3 -5 -2 -10 4 -10 5 0 13 5 16 10 3 6 2 10 -4 10 -5 0
-13 -4 -16 -10z" />
    <path d="M1573 1905 c0 -44 2 -61 4 -37 2 23 2 59 0 80 -2 20 -4 1 -4 -43z" />
    <path d="M3778 1899 c-15 -45 -24 -78 -20 -75 11 12 61 156 53 156 -4 0 -19
-37 -33 -81z" />
    <path d="M810 1920 c0 -5 5 -10 11 -10 5 0 7 5 4 10 -3 6 -8 10 -11 10 -2 0
-4 -4 -4 -10z" />
    <path d="M1465 1900 c-3 -5 -2 -10 4 -10 5 0 13 5 16 10 3 6 2 10 -4 10 -5 0
-13 -4 -16 -10z" />
    <path d="M874 1876 c11 -9 24 -16 30 -16 12 0 7 5 -24 19 l-25 12 19 -15z" />
    <path d="M1405 1860 c-3 -5 -2 -10 4 -10 5 0 13 5 16 10 3 6 2 10 -4 10 -5 0
-13 -4 -16 -10z" />
    <path d="M950 1841 c0 -8 41 -23 47 -17 2 1 -8 8 -22 14 -14 6 -25 8 -25 3z" />
    <path d="M1363 1833 c4 -3 10 -3 14 0 3 4 0 7 -7 7 -7 0 -10 -3 -7 -7z" />
    <path d="M3205 1830 c-3 -5 -1 -10 4 -10 6 0 11 5 11 10 0 6 -2 10 -4 10 -3 0
-8 -4 -11 -10z" />
    <path d="M4120 1830 c0 -5 5 -10 11 -10 5 0 7 5 4 10 -3 6 -8 10 -11 10 -2 0
-4 -4 -4 -10z" />
    <path d="M1015 1820 c3 -5 8 -10 11 -10 3 0 2 5 -1 10 -3 6 -8 10 -11 10 -3 0
-2 -4 1 -10z" />
    <path d="M1310 1820 l-15 -10 12 0 c6 0 15 5 18 10 8 12 4 12 -15 0z" />
    <path d="M1253 1803 c4 -3 10 -3 14 0 3 4 0 7 -7 7 -7 0 -10 -3 -7 -7z" />
  </g>
  <g transform="translate(0.000000,500.000000) scale(0.100000,-0.100000)" fill="#fec5c5" stroke="none">
    <path d="M1123 3183 c4 -3 10 -3 14 0 3 4 0 7 -7 7 -7 0 -10 -3 -7 -7z" />
    <path d="M4044 3158 l-7 -11 11 7 c12 7 16 16 8 16 -3 0 -8 -5 -12 -12z" />
    <path d="M3290 3150 c0 -7 3 -10 7 -7 3 4 3 10 0 14 -4 3 -7 0 -7 -7z" />
    <path d="M1540 3057 c0 -2 15 -16 33 -33 l32 -29 -29 33 c-28 30 -36 37 -36
29z" />
    <path d="M774 3028 l-19 -23 23 19 c21 18 27 26 19 26 -2 0 -12 -10 -23 -22z" />
    <path d="M1153 3013 c15 -2 39 -2 55 0 15 2 2 4 -28 4 -30 0 -43 -2 -27 -4z" />
    <path d="M1083 3003 c4 -3 10 -3 14 0 3 4 0 7 -7 7 -7 0 -10 -3 -7 -7z" />
    <path d="M3350 2981 c0 -6 4 -13 10 -16 l10 -6 -6 15 c-7 18 -14 21 -14 7z" />
    <path d="M2464 2835 c0 -82 2 -115 3 -72 2 43 2 110 0 150 -1 40 -3 5 -3 -78z" />
    <path d="M1350 2966 c0 -2 8 -10 18 -17 l17 -14 -14 18 c-13 16 -21 21 -21 13z" />
    <path d="M3964 2938 l-7 -11 11 7 c12 7 16 16 8 16 -3 0 -8 -5 -12 -12z" />
    <path d="M1650 2925 c0 -5 5 -17 10 -25 5 -8 10 -10 10 -5 0 6 -5 17 -10 25
-5 8 -10 11 -10 5z" />
    <path d="M4115 2870 c-3 -5 -1 -10 4 -10 6 0 11 5 11 10 0 6 -2 10 -4 10 -3 0
-8 -4 -11 -10z" />
    <path d="M860 2810 c0 -7 3 -10 7 -7 3 4 3 10 0 14 -4 3 -7 0 -7 -7z" />
    <path d="M1691 2804 l1 -19 5 13 c3 7 2 16 -1 19 -3 4 -6 -2 -5 -13z" />
    <path d="M1481 2784 l1 -19 5 13 c3 7 2 16 -1 19 -3 4 -6 -2 -5 -13z" />
    <path d="M630 2780 c0 -7 3 -10 7 -7 3 4 3 10 0 14 -4 3 -7 0 -7 -7z" />
    <path d="M840 2760 c0 -7 3 -10 7 -7 3 4 3 10 0 14 -4 3 -7 0 -7 -7z" />
    <path d="M3260 2730 c0 -7 3 -10 7 -7 3 4 3 10 0 14 -4 3 -7 0 -7 -7z" />
    <path d="M3210 2700 c0 -7 3 -10 7 -7 3 4 3 10 0 14 -4 3 -7 0 -7 -7z" />
    <path d="M4120 2700 c0 -7 3 -10 7 -7 3 4 3 10 0 14 -4 3 -7 0 -7 -7z" />
    <path d="M1724 2075 c0 -132 2 -185 3 -117 2 68 2 176 0 240 -1 64 -3 9 -3
-123z" />
    <path d="M2464 2065 c0 -137 2 -195 3 -128 2 67 2 179 0 250 -1 70 -3 16 -3
-122z" />
    <path d="M3210 2300 c0 -7 3 -10 7 -7 3 4 3 10 0 14 -4 3 -7 0 -7 -7z" />
    <path d="M4120 2300 c0 -7 3 -10 7 -7 3 4 3 10 0 14 -4 3 -7 0 -7 -7z" />
    <path d="M611 2274 l1 -19 5 13 c3 7 2 16 -1 19 -3 4 -6 -2 -5 -13z" />
    <path d="M830 2270 c0 -7 3 -10 7 -7 3 4 3 10 0 14 -4 3 -7 0 -7 -7z" />
    <path d="M3901 2254 l1 -19 5 13 c3 7 2 16 -1 19 -3 4 -6 -2 -5 -13z" />
    <path d="M621 2234 l1 -19 5 13 c3 7 2 16 -1 19 -3 4 -6 -2 -5 -13z" />
    <path d="M1500 2230 c0 -7 3 -10 7 -7 3 4 3 10 0 14 -4 3 -7 0 -7 -7z" />
    <path d="M3620 2220 c0 -7 3 -10 7 -7 3 4 3 10 0 14 -4 3 -7 0 -7 -7z" />
    <path d="M3710 2220 c0 -7 3 -10 7 -7 3 4 3 10 0 14 -4 3 -7 0 -7 -7z" />
    <path d="M861 2184 l1 -19 5 13 c3 7 2 16 -1 19 -3 4 -6 -2 -5 -13z" />
    <path d="M3630 2190 c0 -7 3 -10 7 -7 3 4 3 10 0 14 -4 3 -7 0 -7 -7z" />
    <path d="M880 2153 c0 -6 9 -21 21 -34 l20 -24 -17 30 c-24 39 -24 40 -24 28z" />
    <path d="M690 2060 c0 -7 3 -10 7 -7 3 4 3 10 0 14 -4 3 -7 0 -7 -7z" />
    <path d="M3830 2050 c0 -7 3 -10 7 -7 3 4 3 10 0 14 -4 3 -7 0 -7 -7z" />
    <path d="M3511 2014 l1 -19 5 13 c3 7 2 16 -1 19 -3 4 -6 -2 -5 -13z" />
    <path d="M1030 2012 c8 -5 26 -13 40 -16 l25 -7 -15 9 c-8 5 -26 13 -40 16
l-25 7 15 -9z" />
    <path d="M1288 1993 c7 -3 16 -2 19 1 4 3 -2 6 -13 5 l-19 -1 13 -5z" />
    <path d="M1549 1983 l-14 -18 18 14 c9 7 17 15 17 17 0 8 -8 3 -21 -13z" />
    <path d="M1248 1983 c7 -3 16 -2 19 1 4 3 -2 6 -13 5 l-19 -1 13 -5z" />
    <path d="M900 1866 c0 -3 9 -10 20 -16 11 -6 20 -8 20 -6 0 3 -9 10 -20 16
-11 6 -20 8 -20 6z" />
    <path d="M963 1833 c4 -3 10 -3 14 0 3 4 0 7 -7 7 -7 0 -10 -3 -7 -7z" />
    <path d="M3204 1828 l-7 -11 11 7 c7 4 12 9 12 12 0 8 -9 4 -16 -8z" />
    <path d="M998 1823 c7 -3 16 -2 19 1 4 3 -2 6 -13 5 l-19 -1 13 -5z" />
    <path d="M1288 1813 c7 -3 16 -2 19 1 4 3 -2 6 -13 5 l-19 -1 13 -5z" />
    <path d="M1153 1803 c15 -2 37 -2 50 0 12 2 0 4 -28 4 -27 0 -38 -2 -22 -4z" />
  </g>
  <g transform="translate(0.000000,500.000000) scale(0.100000,-0.100000)" fill="#ff9b9b" stroke="none">
    <path d="M3004 3167 c-2 -7 -3 -118 -2 -247 l3 -235 5 248 c3 136 4 247 2 247
-1 0 -5 -6 -8 -13z" />
    <path d="M1343 3163 c4 -3 10 -3 14 0 3 4 0 7 -7 7 -7 0 -10 -3 -7 -7z" />
    <path d="M2872 3093 c-1 -45 -5 -90 -8 -100 l-7 -18 12 11 12 11 -4 89 -3 89
-2 -82z" />
    <path d="M3285 3160 c3 -5 8 -10 11 -10 3 0 2 5 -1 10 -3 6 -8 10 -11 10 -3 0
-2 -4 1 -10z" />
    <path d="M1831 3083 c0 -45 2 -84 7 -86 4 -3 6 23 4 56 -5 104 -9 116 -11 30z" />
    <path d="M875 3110 l-6 -10 15 6 c18 7 21 14 7 14 -6 0 -13 -4 -16 -10z" />
    <path d="M4025 3099 c-4 -6 -5 -12 -2 -15 2 -3 7 2 10 11 7 17 1 20 -8 4z" />
    <path d="M1535 3060 c3 -5 8 -10 11 -10 3 0 2 5 -1 10 -3 6 -8 10 -11 10 -3 0
-2 -4 1 -10z" />
    <path d="M1093 3003 c4 -3 10 -3 14 0 3 4 0 7 -7 7 -7 0 -10 -3 -7 -7z" />
    <path d="M3345 2990 c3 -5 8 -10 11 -10 3 0 2 5 -1 10 -3 6 -8 10 -11 10 -3 0
-2 -4 1 -10z" />
    <path d="M1010 2980 l-15 -10 12 0 c6 0 15 5 18 10 8 12 4 12 -15 0z" />
    <path d="M3361 2954 l1 -19 5 13 c3 7 2 16 -1 19 -3 4 -6 -2 -5 -13z" />
    <path d="M695 2929 c-4 -6 -5 -12 -2 -15 2 -3 7 2 10 11 7 17 1 20 -8 4z" />
    <path d="M934 2918 l-19 -23 23 19 c21 18 27 26 19 26 -2 0 -12 -10 -23 -22z" />
    <path d="M1445 2860 c3 -5 8 -10 11 -10 3 0 2 5 -1 10 -3 6 -8 10 -11 10 -3 0
-2 -4 1 -10z" />
    <path d="M4110 2860 c0 -5 5 -10 10 -10 6 0 10 5 10 10 0 6 -4 10 -10 10 -5 0
-10 -4 -10 -10z" />
    <path d="M3210 2849 c0 -6 8 -18 17 -27 l17 -17 -7 18 c-4 10 -7 23 -7 28 0 5
-4 9 -10 9 -5 0 -10 -5 -10 -11z" />
    <path d="M4100 2830 c0 -7 3 -10 7 -7 3 4 3 10 0 14 -4 3 -7 0 -7 -7z" />
    <path d="M641 2814 l1 -19 5 13 c3 7 2 16 -1 19 -3 4 -6 -2 -5 -13z" />
    <path d="M1690 2820 c0 -7 3 -10 7 -7 3 4 3 10 0 14 -4 3 -7 0 -7 -7z" />
    <path d="M3920 2810 c0 -7 3 -10 7 -7 3 4 3 10 0 14 -4 3 -7 0 -7 -7z" />
    <path d="M3240 2790 c0 -7 3 -10 7 -7 3 4 3 10 0 14 -4 3 -7 0 -7 -7z" />
    <path d="M3420 2780 c0 -7 3 -10 7 -7 3 4 3 10 0 14 -4 3 -7 0 -7 -7z" />
    <path d="M1480 2770 c0 -7 3 -10 7 -7 3 4 3 10 0 14 -4 3 -7 0 -7 -7z" />
    <path d="M1696 2753 l-7 -18 12 12 c7 7 10 15 7 18 -3 3 -9 -2 -12 -12z" />
    <path d="M3250 2760 c0 -7 3 -10 7 -7 3 4 3 10 0 14 -4 3 -7 0 -7 -7z" />
    <path d="M610 2720 c0 -7 3 -10 7 -7 3 4 3 10 0 14 -4 3 -7 0 -7 -7z" />
    <path d="M3885 2709 c-4 -6 -5 -12 -2 -15 2 -3 7 2 10 11 7 17 1 20 -8 4z" />
    <path d="M3004 2070 c0 -135 2 -190 3 -122 2 67 2 177 0 245 -1 67 -3 12 -3
-123z" />
    <path d="M3410 2300 c0 -7 3 -10 7 -7 3 4 3 10 0 14 -4 3 -7 0 -7 -7z" />
    <path d="M3906 2273 l-7 -18 12 12 c7 7 10 15 7 18 -3 3 -9 -2 -12 -12z" />
    <path d="M3420 2271 c0 -6 4 -13 10 -16 l10 -6 -6 15 c-7 18 -14 21 -14 7z" />
    <path d="M1500 2240 c0 -7 3 -10 7 -7 3 4 3 10 0 14 -4 3 -7 0 -7 -7z" />
    <path d="M3894 2238 l-7 -11 11 7 c12 7 16 16 8 16 -3 0 -8 -5 -12 -12z" />
    <path d="M625 2220 c3 -5 8 -10 11 -10 3 0 2 5 -1 10 -3 6 -8 10 -11 10 -3 0
-2 -4 1 -10z" />
    <path d="M1480 2169 c-7 -11 -10 -23 -7 -25 2 -2 9 7 15 21 14 30 7 33 -8 4z" />
    <path d="M640 2171 c0 -6 4 -13 10 -16 l10 -6 -6 15 c-7 18 -14 21 -14 7z" />
    <path d="M3680 2140 c0 -7 3 -10 7 -7 3 4 3 10 0 14 -4 3 -7 0 -7 -7z" />
    <path d="M3860 2140 c0 -7 3 -10 7 -7 3 4 3 10 0 14 -4 3 -7 0 -7 -7z" />
    <path d="M890 2130 c0 -7 3 -10 7 -7 3 4 3 10 0 14 -4 3 -7 0 -7 -7z" />
    <path d="M3650 2133 c0 -6 8 -17 18 -24 l17 -14 -15 20 c-8 11 -16 22 -17 24
-2 2 -3 0 -3 -6z" />
    <path d="M3850 2110 c0 -7 3 -10 7 -7 3 4 3 10 0 14 -4 3 -7 0 -7 -7z" />
    <path d="M3480 2100 c0 -7 3 -10 7 -7 3 4 3 10 0 14 -4 3 -7 0 -7 -7z" />
    <path d="M3840 2080 c0 -7 3 -10 7 -7 3 4 3 10 0 14 -4 3 -7 0 -7 -7z" />
    <path d="M690 2056 c0 -2 8 -10 18 -17 l17 -14 -14 18 c-13 16 -21 21 -21 13z" />
    <path d="M3824 2038 l-7 -11 11 7 c7 4 12 9 12 12 0 8 -9 4 -16 -8z" />
    <path d="M1325 2010 l-6 -10 15 6 c18 7 21 14 7 14 -6 0 -13 -4 -16 -10z" />
    <path d="M3814 2008 l-7 -11 11 7 c12 7 16 16 8 16 -3 0 -8 -5 -12 -12z" />
    <path d="M1053 2003 c4 -3 10 -3 14 0 3 4 0 7 -7 7 -7 0 -10 -3 -7 -7z" />
    <path d="M3515 2000 c3 -5 8 -10 11 -10 3 0 2 5 -1 10 -3 6 -8 10 -11 10 -3 0
-2 -4 1 -10z" />
    <path d="M1083 1993 c4 -3 10 -3 14 0 3 4 0 7 -7 7 -7 0 -10 -3 -7 -7z" />
    <path d="M1228 1983 c7 -3 16 -2 19 1 4 3 -2 6 -13 5 l-19 -1 13 -5z" />
    <path d="M3780 1910 c0 -7 3 -10 7 -7 3 4 3 10 0 14 -4 3 -7 0 -7 -7z" />
    <path d="M3760 1850 c0 -7 3 -10 7 -7 3 4 3 10 0 14 -4 3 -7 0 -7 -7z" />
    <path d="M955 1840 c3 -5 8 -10 11 -10 3 0 2 5 -1 10 -3 6 -8 10 -11 10 -3 0
-2 -4 1 -10z" />
    <path d="M3570 1841 c0 -6 4 -13 10 -16 l10 -6 -6 15 c-7 18 -14 21 -14 7z" />
    <path d="M1713 1823 c4 -3 10 -3 14 0 3 4 0 7 -7 7 -7 0 -10 -3 -7 -7z" />
    <path d="M1103 1803 c4 -3 10 -3 14 0 3 4 0 7 -7 7 -7 0 -10 -3 -7 -7z" />
  </g>
  <g transform="translate(0.000000,500.000000) scale(0.100000,-0.100000)" fill="#c0bab9" stroke="none">
    <path d="M1570 2600 c0 -5 7 -7 15 -4 8 4 15 8 15 10 0 2 -7 4 -15 4 -8 0 -15
-4 -15 -10z" />
    <path d="M1820 2600 c0 -5 7 -7 15 -4 8 4 15 8 15 10 0 2 -7 4 -15 4 -8 0 -15
-4 -15 -10z" />
    <path d="M1870 2606 c0 -2 7 -6 15 -10 8 -3 15 -1 15 4 0 6 -7 10 -15 10 -8 0
-15 -2 -15 -4z" />
    <path d="M2070 2600 c0 -5 7 -7 15 -4 8 4 15 8 15 10 0 2 -7 4 -15 4 -8 0 -15
-4 -15 -10z" />
    <path d="M2120 2606 c0 -2 7 -6 15 -10 8 -3 15 -1 15 4 0 6 -7 10 -15 10 -8 0
-15 -2 -15 -4z" />
    <path d="M2320 2600 c0 -5 7 -7 15 -4 8 4 15 8 15 10 0 2 -7 4 -15 4 -8 0 -15
-4 -15 -10z" />
    <path d="M2520 2601 c0 -6 9 -9 20 -8 11 1 20 5 20 9 0 4 -9 8 -20 8 -11 0
-20 -4 -20 -9z" />
    <path d="M2732 2503 l2 -108 3 103 4 104 64 -4 c36 -1 65 0 65 5 0 4 -31 7
-70 7 l-70 0 2 -107z" />
    <path d="M3040 2603 c0 -5 36 -8 80 -8 44 0 80 3 80 8 0 4 -36 7 -80 7 -44 0
-80 -3 -80 -7z" />
    <path d="M3270 2603 c0 -5 11 -9 25 -9 14 -1 22 2 19 7 -6 11 -44 12 -44 2z" />
    <path d="M3430 2602 c0 -4 9 -8 20 -8 11 0 20 4 20 8 0 4 -9 8 -20 8 -11 0
-20 -4 -20 -8z" />
    <path d="M1650 2590 l0 -12 -15 6 -16 6 18 -25 c19 -26 53 -34 53 -12 0 8 -9
22 -20 32 l-20 18 0 -13z m18 -35 c-3 -3 -9 2 -12 12 l-7 18 12 -12 c7 -7 10
-15 7 -18z" />
    <path d="M2400 2590 l0 -12 -15 6 -16 6 18 -25 c19 -26 53 -34 53 -12 0 8 -9
22 -20 32 l-20 18 0 -13z m18 -35 c-3 -3 -9 2 -12 12 l-7 18 12 -12 c7 -7 10
-15 7 -18z" />
    <path d="M2760 2551 l0 -39 50 -4 c28 -1 50 0 50 5 0 4 -21 7 -46 7 l-46 0 4
35 c2 19 0 35 -4 35 -4 0 -8 -18 -8 -39z" />
    <path d="M1920 2574 c1 -5 7 -20 15 -34 l14 -25 1 21 c0 12 -7 27 -15 34 -8 7
-15 9 -15 4z" />
    <path d="M2170 2574 c1 -5 7 -20 15 -34 l14 -25 1 21 c0 12 -7 27 -15 34 -8 7
-15 9 -15 4z" />
    <path d="M3104 2490 c0 -52 1 -74 3 -47 2 26 2 68 0 95 -2 26 -3 4 -3 -48z" />
    <path d="M3134 2490 c0 -52 1 -74 3 -47 2 26 2 68 0 95 -2 26 -3 4 -3 -48z" />
    <path d="M3310 2576 c0 -3 4 -16 10 -30 l9 -25 -14 6 -15 5 0 -16 c0 -9 5 -16
10 -16 6 0 10 -7 10 -15 0 -8 4 -15 8 -15 7 0 9 49 3 98 -1 11 -21 18 -21 8z" />
    <path d="M1520 2545 c0 -8 2 -15 4 -15 2 0 6 7 10 15 3 8 1 15 -4 15 -6 0 -10
-7 -10 -15z" />
    <path d="M1770 2545 c0 -8 2 -15 4 -15 2 0 6 7 10 15 3 8 1 15 -4 15 -6 0 -10
-7 -10 -15z" />
    <path d="M2020 2545 c0 -8 2 -15 4 -15 2 0 6 7 10 15 3 8 1 15 -4 15 -6 0 -10
-7 -10 -15z" />
    <path d="M2270 2545 c0 -8 2 -15 4 -15 2 0 6 7 10 15 3 8 1 15 -4 15 -6 0 -10
-7 -10 -15z" />
    <path d="M3404 2510 c0 -22 4 -40 8 -40 5 0 8 7 8 15 0 8 5 15 10 15 6 0 10 7
10 16 l0 16 -14 -5 -15 -6 6 15 c3 7 1 14 -5 14 l-9 0 1 -40z" />
    <path d="M1910 2525 c0 -8 4 -15 10 -15 5 0 7 7 4 15 -4 8 -8 15 -10 15 -2 0
-4 -7 -4 -15z" />
    <path d="M2160 2525 c0 -8 4 -15 10 -15 5 0 7 7 4 15 -4 8 -8 15 -10 15 -2 0
-4 -7 -4 -15z" />
    <path d="M1610 2488 c0 -4 6 -8 14 -8 8 0 21 -3 30 -6 9 -3 16 -2 16 4 0 5
-13 12 -30 14 -16 3 -30 1 -30 -4z" />
    <path d="M2360 2488 c0 -4 6 -8 14 -8 8 0 21 -3 30 -6 9 -3 16 -2 16 4 0 5
-13 12 -30 14 -16 3 -30 1 -30 -4z" />
    <path d="M2760 2461 l0 -39 55 -4 c30 -1 55 0 55 5 0 4 -23 7 -51 7 l-51 0 4
35 c2 19 0 35 -4 35 -4 0 -8 -18 -8 -39z" />
    <path d="M1903 2459 l-12 -30 12 4 c12 4 29 57 18 57 -3 0 -12 -14 -18 -31z" />
    <path d="M2153 2459 l-12 -30 12 4 c12 4 29 57 18 57 -3 0 -12 -14 -18 -31z" />
    <path d="M1540 2471 c0 -6 5 -13 10 -16 l10 -6 0 15 c0 9 -4 16 -10 16 -5 0
-10 -4 -10 -9z" />
    <path d="M1790 2471 c0 -6 5 -13 10 -16 l10 -6 0 15 c0 9 -4 16 -10 16 -5 0
-10 -4 -10 -9z" />
    <path d="M1936 2471 c-4 -7 -5 -15 -2 -18 9 -9 19 4 14 18 l-4 13 -8 -13z" />
    <path d="M2040 2471 c0 -6 5 -13 10 -16 l10 -6 0 15 c0 9 -4 16 -10 16 -5 0
-10 -4 -10 -9z" />
    <path d="M2186 2471 c-4 -7 -5 -15 -2 -18 9 -9 19 4 14 18 l-4 13 -8 -13z" />
    <path d="M2290 2471 c0 -6 5 -13 10 -16 l10 -6 0 15 c0 9 -4 16 -10 16 -5 0
-10 -4 -10 -9z" />
    <path d="M1520 2459 c0 -9 7 -22 15 -29 19 -16 19 0 0 26 l-14 19 -1 -16z" />
    <path d="M1770 2459 c0 -9 7 -22 15 -29 19 -16 19 0 0 26 l-14 19 -1 -16z" />
    <path d="M2020 2459 c0 -9 7 -22 15 -29 19 -16 19 0 0 26 l-14 19 -1 -16z" />
    <path d="M2270 2459 c0 -9 7 -22 15 -29 19 -16 19 0 0 26 l-14 19 -1 -16z" />
    <path d="M3353 2458 c2 -7 10 -13 17 -13 7 0 15 6 18 13 l4 12 -22 0 -22 0 5
-12z" />
    <path d="M1820 2430 c0 -6 7 -10 15 -10 8 0 15 2 15 4 0 2 -7 6 -15 10 -8 3
-15 1 -15 -4z" />
    <path d="M1910 2425 c-20 -24 -6 -28 15 -5 10 11 13 20 8 20 -6 0 -16 -7 -23
-15z" />
    <path d="M2070 2430 c0 -6 7 -10 15 -10 8 0 15 2 15 4 0 2 -7 6 -15 10 -8 3
-15 1 -15 -4z" />
    <path d="M2160 2425 c-20 -24 -6 -28 15 -5 10 11 13 20 8 20 -6 0 -16 -7 -23
-15z" />
    <path d="M2550 2428 c0 -5 22 -8 49 -8 l49 0 5 -12 5 -13 1 17 1 16 -55 4
c-30 1 -55 0 -55 -4z" />
    <path d="M3345 2410 c3 -5 8 -10 11 -10 2 0 4 5 4 10 0 6 -5 10 -11 10 -5 0
-7 -4 -4 -10z" />
    <path d="M3375 2410 c-3 -5 -1 -10 4 -10 6 0 11 5 11 10 0 6 -2 10 -4 10 -3 0
-8 -4 -11 -10z" />
  </g>
  <g transform="translate(0.000000,500.000000) scale(0.100000,-0.100000)" fill="#ff7c7c" stroke="none">
    <path d="M4325 3170 c3 -5 8 -10 11 -10 3 0 2 5 -1 10 -3 6 -8 10 -11 10 -3 0
-2 -4 1 -10z" />
    <path d="M984 3158 l-7 -11 11 7 c7 4 12 9 12 12 0 8 -9 4 -16 -8z" />
    <path d="M4040 3150 c0 -7 3 -10 7 -7 3 4 3 10 0 14 -4 3 -7 0 -7 -7z" />
    <path d="M3306 3107 c3 -10 9 -15 12 -12 3 3 0 11 -7 18 l-12 12 7 -18z" />
    <path d="M3330 3040 c0 -7 3 -10 7 -7 3 4 3 10 0 14 -4 3 -7 0 -7 -7z" />
    <path d="M1275 3000 c3 -5 8 -10 11 -10 3 0 2 5 -1 10 -3 6 -8 10 -11 10 -3 0
-2 -4 1 -10z" />
    <path d="M1840 2990 c0 -7 3 -10 7 -7 3 4 3 10 0 14 -4 3 -7 0 -7 -7z" />
    <path d="M2860 2990 c0 -7 3 -10 7 -7 3 4 3 10 0 14 -4 3 -7 0 -7 -7z" />
    <path d="M730 2980 c0 -7 3 -10 7 -7 3 4 3 10 0 14 -4 3 -7 0 -7 -7z" />
    <path d="M973 2953 c4 -3 10 -3 14 0 3 4 0 7 -7 7 -7 0 -10 -3 -7 -7z" />
    <path d="M3366 2937 c3 -10 9 -15 12 -12 3 3 0 11 -7 18 l-12 12 7 -18z" />
    <path d="M3960 2930 c0 -7 3 -10 7 -7 3 4 3 10 0 14 -4 3 -7 0 -7 -7z" />
    <path d="M894 2868 l-7 -11 11 7 c7 4 12 9 12 12 0 8 -9 4 -16 -8z" />
    <path d="M4115 2860 c3 -5 8 -10 11 -10 2 0 4 5 4 10 0 6 -5 10 -11 10 -5 0
-7 -4 -4 -10z" />
    <path d="M3216 2841 c-3 -5 1 -11 9 -14 l14 -6 -6 15 c-6 16 -10 17 -17 5z" />
    <path d="M644 2828 l-7 -11 11 7 c12 7 16 16 8 16 -3 0 -8 -5 -12 -12z" />
    <path d="M1685 2830 c3 -5 8 -10 11 -10 3 0 2 5 -1 10 -3 6 -8 10 -11 10 -3 0
-2 -4 1 -10z" />
    <path d="M4123 2760 c0 -36 2 -50 4 -32 2 17 2 47 0 65 -2 17 -4 3 -4 -33z" />
    <path d="M854 2798 l-7 -11 11 7 c7 4 12 9 12 12 0 8 -9 4 -16 -8z" />
    <path d="M3913 2793 c-3 -10 -8 -22 -11 -27 -3 -5 0 -6 5 -3 11 7 25 47 17 47
-3 0 -7 -8 -11 -17z" />
    <path d="M1690 2790 c0 -5 5 -10 11 -10 5 0 7 5 4 10 -3 6 -8 10 -11 10 -2 0
-4 -4 -4 -10z" />
    <path d="M3213 2750 c0 -30 2 -43 4 -27 2 15 2 39 0 55 -2 15 -4 2 -4 -28z" />
    <path d="M3426 2767 c3 -10 9 -15 12 -12 3 3 0 11 -7 18 l-12 12 7 -18z" />
    <path d="M1486 2755 c4 -8 11 -15 16 -15 l10 0 -12 15 c-7 8 -14 15 -16 15 -2
0 -1 -7 2 -15z" />
    <path d="M614 2728 l-7 -11 11 7 c7 4 12 9 12 12 0 8 -9 4 -16 -8z" />
    <path d="M830 2720 c0 -7 3 -10 7 -7 3 4 3 10 0 14 -4 3 -7 0 -7 -7z" />
    <path d="M3737 2303 c-4 -3 -7 -11 -7 -17 l0 -10 12 12 c6 6 9 14 7 17 -3 3
-9 2 -12 -2z" />
    <path d="M3214 2065 c0 -132 2 -185 3 -117 2 68 2 176 0 240 -1 64 -3 9 -3
-123z" />
    <path d="M3597 2280 c3 -11 9 -22 13 -25 5 -3 6 4 3 15 -3 11 -9 22 -13 25 -5
3 -6 -4 -3 -15z" />
    <path d="M4122 2068 c-1 -130 1 -239 6 -241 4 -3 6 65 4 151 -4 297 -8 326
-10 90z" />
    <path d="M3440 2211 c0 -6 4 -13 10 -16 l10 -6 -6 15 c-7 18 -14 21 -14 7z" />
    <path d="M855 2200 c3 -5 8 -10 11 -10 3 0 2 5 -1 10 -3 6 -8 10 -11 10 -3 0
-2 -4 1 -10z" />
    <path d="M630 2191 c0 -6 4 -13 10 -16 l10 -6 -6 15 c-7 18 -14 21 -14 7z" />
    <path d="M3872 2171 c-6 -17 -9 -31 -6 -31 7 0 25 52 20 57 -2 2 -8 -10 -14
-26z" />
    <path d="M655 2130 c3 -5 8 -10 11 -10 3 0 2 5 -1 10 -3 6 -8 10 -11 10 -3 0
-2 -4 1 -10z" />
    <path d="M930 2075 c7 -9 15 -13 17 -11 7 7 -7 26 -19 26 l-10 0 12 -15z" />
    <path d="M1399 2064 l-24 -27 22 14 c13 7 25 19 27 26 8 19 2 16 -25 -13z" />
    <path d="M710 2030 c0 -7 3 -10 7 -7 3 4 3 10 0 14 -4 3 -7 0 -7 -7z" />
    <path d="M1265 1990 l-6 -10 15 6 c18 7 21 14 7 14 -6 0 -13 -4 -16 -10z" />
    <path d="M1168 1983 c12 -2 32 -2 45 0 12 2 2 4 -23 4 -25 0 -35 -2 -22 -4z" />
    <path d="M3796 1953 l-7 -18 12 12 c7 7 10 15 7 18 -3 3 -9 -2 -12 -12z" />
    <path d="M835 1900 c3 -5 8 -10 11 -10 3 0 2 5 -1 10 -3 6 -8 10 -11 10 -3 0
-2 -4 1 -10z" />
    <path d="M1473 1903 c4 -3 10 -3 14 0 3 4 0 7 -7 7 -7 0 -10 -3 -7 -7z" />
    <path d="M1440 1880 l-15 -10 12 0 c6 0 15 5 18 10 8 12 4 12 -15 0z" />
    <path d="M1394 1848 l-7 -11 11 7 c12 7 16 16 8 16 -3 0 -8 -5 -12 -12z" />
    <path d="M1344 1828 l-7 -11 11 7 c12 7 16 16 8 16 -3 0 -8 -5 -12 -12z" />
  </g>
  <g transform="translate(0.000000,500.000000) scale(0.100000,-0.100000)" fill="#f3ebe9" stroke="none">
    <path d="M1804 2594 l-19 -15 24 7 24 6 -7 -11 c-4 -6 -3 -11 3 -11 16 0 20
14 6 27 l-13 12 -18 -15z" />
    <path d="M1890 2603 c0 -5 9 -14 20 -21 l20 -12 0 10 c0 5 -9 14 -20 20 -11 6
-20 7 -20 3z" />
    <path d="M2054 2594 l-19 -15 24 7 24 6 -7 -11 c-4 -6 -3 -11 3 -11 16 0 20
14 6 27 l-13 12 -18 -15z" />
    <path d="M2140 2603 c0 -5 9 -14 20 -21 l20 -12 0 10 c0 5 -9 14 -20 20 -11 6
-20 7 -20 3z" />
    <path d="M2520 2600 c0 -5 5 -10 11 -10 5 0 7 5 4 10 -3 6 -8 10 -11 10 -2 0
-4 -4 -4 -10z" />
    <path d="M3036 2601 c-4 -7 -5 -15 -2 -18 9 -9 19 4 14 18 l-4 13 -8 -13z" />
    <path d="M3267 2603 c-4 -3 -7 -51 -7 -105 l0 -98 10 0 10 0 0 105 c0 58 -1
105 -3 105 -2 0 -7 -3 -10 -7z" />
    <path d="M3460 2506 l0 -106 10 0 10 0 0 99 0 100 -10 6 -10 6 0 -105z" />
    <path d="M1565 2570 c-26 -29 -14 -33 14 -4 13 13 19 24 14 24 -6 0 -18 -9
-28 -20z" />
    <path d="M2315 2570 c-26 -29 -14 -33 14 -4 13 13 19 24 14 24 -6 0 -18 -9
-28 -20z" />
    <path d="M3310 2574 l0 -15 10 6 c6 4 8 11 5 16 -9 14 -15 11 -15 -7z" />
    <path d="M3416 2581 c-4 -7 -5 -15 -2 -18 9 -9 19 4 14 18 l-4 13 -8 -13z" />
    <path d="M1670 2564 l0 -15 10 6 c6 4 8 11 5 16 -9 14 -15 11 -15 -7z" />
    <path d="M1890 2565 c7 -9 15 -13 17 -11 7 7 -7 26 -19 26 l-10 0 12 -15z" />
    <path d="M2140 2565 c7 -9 15 -13 17 -11 7 7 -7 26 -19 26 l-10 0 12 -15z" />
    <path d="M2420 2564 l0 -15 10 6 c6 4 8 11 5 16 -9 14 -15 11 -15 -7z" />
    <path d="M1930 2550 c0 -5 5 -10 10 -10 6 0 10 5 10 10 0 6 -4 10 -10 10 -5 0
-10 -4 -10 -10z" />
    <path d="M2180 2550 c0 -5 5 -10 10 -10 6 0 10 5 10 10 0 6 -4 10 -10 10 -5 0
-10 -4 -10 -10z" />
    <path d="M1517 2533 c-11 -10 -8 -61 3 -68 6 -4 8 -11 5 -16 -4 -5 -2 -9 3 -9
l10 0 -6 48 c-2 26 -6 48 -7 50 -1 1 -5 -1 -8 -5z" />
    <path d="M1767 2533 c-11 -10 -8 -61 3 -68 6 -4 8 -11 5 -16 -4 -5 -2 -9 3 -9
l10 0 -6 48 c-2 26 -6 48 -7 50 -1 1 -5 -1 -8 -5z" />
    <path d="M2017 2533 c-11 -10 -8 -61 3 -68 6 -4 8 -11 5 -16 -4 -5 -2 -9 3 -9
l10 0 -6 48 c-2 26 -6 48 -7 50 -1 1 -5 -1 -8 -5z" />
    <path d="M2267 2533 c-11 -10 -8 -61 3 -68 6 -4 8 -11 5 -16 -4 -5 -2 -9 3 -9
l10 0 -6 48 c-2 26 -6 48 -7 50 -1 1 -5 -1 -8 -5z" />
    <path d="M3290 2470 l0 -70 10 0 10 0 1 48 c0 26 2 57 5 70 l4 22 -15 0 -15 0
0 -70z" />
    <path d="M3424 2518 c3 -13 5 -44 5 -70 l1 -48 10 0 10 0 0 70 0 70 -15 0 -15
0 4 -22z" />
    <path d="M1540 2505 c0 -14 5 -25 10 -25 6 0 10 11 10 25 0 14 -4 25 -10 25
-5 0 -10 -11 -10 -25z" />
    <path d="M2290 2505 c0 -14 5 -25 10 -25 6 0 10 11 10 25 0 14 -4 25 -10 25
-5 0 -10 -11 -10 -25z" />
    <path d="M1790 2500 c0 -11 5 -20 10 -20 6 0 10 9 10 20 0 11 -4 20 -10 20 -5
0 -10 -9 -10 -20z" />
    <path d="M2040 2500 c0 -11 5 -20 10 -20 6 0 10 9 10 20 0 11 -4 20 -10 20 -5
0 -10 -9 -10 -20z" />
    <path d="M1600 2501 c0 -6 5 -13 10 -16 l10 -6 0 15 c0 9 -4 16 -10 16 -5 0
-10 -4 -10 -9z" />
    <path d="M1680 2455 l0 -55 10 0 10 0 0 55 0 55 -10 0 -10 0 0 -55z" />
    <path d="M2350 2501 c0 -6 5 -13 10 -16 l10 -6 0 15 c0 9 -4 16 -10 16 -5 0
-10 -4 -10 -9z" />
    <path d="M2430 2455 l0 -55 10 0 10 0 0 55 0 55 -10 0 -10 0 0 -55z" />
    <path d="M3334 2492 l-11 -16 10 -33 c6 -18 14 -33 19 -33 5 0 7 9 3 19 l-6
19 12 8 12 7 13 -18 13 -18 9 24 9 24 -10 17 c-12 19 -27 15 -27 -8 0 -8 -4
-14 -10 -14 -5 0 -10 6 -10 14 0 22 -15 27 -26 8z m13 -29 c-4 -3 -7 0 -7 7 0
7 3 10 7 7 3 -4 3 -10 0 -14z m50 0 c-4 -3 -7 0 -7 7 0 7 3 10 7 7 3 -4 3 -10
0 -14z" />
    <path d="M1905 2461 c-3 -5 -1 -12 5 -16 l10 -6 0 15 c0 18 -6 21 -15 7z" />
    <path d="M2155 2461 c-3 -5 -1 -12 5 -16 l10 -6 0 15 c0 18 -6 21 -15 7z" />
    <path d="M1540 2420 c0 -5 5 -10 11 -10 5 0 7 5 4 10 -3 6 -8 10 -11 10 -2 0
-4 -4 -4 -10z" />
    <path d="M1598 2423 c6 -2 18 -2 25 0 6 3 1 5 -13 5 -14 0 -19 -2 -12 -5z" />
    <path d="M2290 2420 c0 -5 5 -10 11 -10 5 0 7 5 4 10 -3 6 -8 10 -11 10 -2 0
-4 -4 -4 -10z" />
    <path d="M2348 2423 c6 -2 18 -2 25 0 6 3 1 5 -13 5 -14 0 -19 -2 -12 -5z" />
    <path d="M2860 2416 c0 -9 5 -16 10 -16 6 0 10 4 10 9 0 6 -4 13 -10 16 l-10
6 0 -15z" />
    <path d="M1620 2400 l-15 -10 12 0 c6 0 15 5 18 10 8 12 4 12 -15 0z" />
    <path d="M1870 2400 l-15 -10 12 0 c6 0 15 5 18 10 8 12 4 12 -15 0z" />
    <path d="M2120 2400 l-15 -10 12 0 c6 0 15 5 18 10 8 12 4 12 -15 0z" />
    <path d="M2370 2400 l-15 -10 12 0 c6 0 15 5 18 10 8 12 4 12 -15 0z" />
  </g>
  <g transform="translate(0.000000,500.000000) scale(0.100000,-0.100000)" fill="#666362" stroke="none">
    <path d="M1608 2603 c7 -3 16 -2 19 1 4 3 -2 6 -13 5 l-19 -1 13 -5z" />
    <path d="M1858 2603 c7 -3 16 -2 19 1 4 3 -2 6 -13 5 l-19 -1 13 -5z" />
    <path d="M2108 2603 c7 -3 16 -2 19 1 4 3 -2 6 -13 5 l-19 -1 13 -5z" />
    <path d="M2358 2603 c7 -3 16 -2 19 1 4 3 -2 6 -13 5 l-19 -1 13 -5z" />
    <path d="M3041 2594 l1 -19 5 13 c3 7 2 16 -1 19 -3 4 -6 -2 -5 -13z" />
    <path d="M3274 2505 c0 -60 1 -84 3 -52 2 32 2 81 0 110 -2 29 -3 3 -3 -58z" />
    <path d="M3464 2505 c0 -60 1 -84 3 -52 2 32 2 81 0 110 -2 29 -3 3 -3 -58z" />
    <path d="M1913 2586 c15 -21 6 -28 -13 -11 -23 21 -27 11 -5 -11 8 -9 19 -13
24 -10 5 4 11 0 14 -6 2 -7 7 -11 10 -8 3 3 -4 17 -16 31 -12 13 -19 20 -14
15z" />
    <path d="M2163 2586 c15 -21 6 -28 -13 -11 -23 21 -27 11 -5 -11 8 -9 19 -13
24 -10 5 4 11 0 14 -6 2 -7 7 -11 10 -8 3 3 -4 17 -16 31 -12 13 -19 20 -14
15z" />
    <path d="M1838 2583 c7 -3 16 -2 19 1 4 3 -2 6 -13 5 l-19 -1 13 -5z" />
    <path d="M2088 2583 c7 -3 16 -2 19 1 4 3 -2 6 -13 5 l-19 -1 13 -5z" />
    <path d="M1666 2565 c4 -8 8 -15 10 -15 2 0 4 7 4 15 0 8 -4 15 -10 15 -5 0
-7 -7 -4 -15z" />
    <path d="M2416 2565 c4 -8 8 -15 10 -15 2 0 4 7 4 15 0 8 -4 15 -10 15 -5 0
-7 -7 -4 -15z" />
    <path d="M3427 2558 c4 -7 10 -47 14 -88 l6 -75 1 88 2 87 -16 0 -15 0 8 -12z" />
    <path d="M3291 2478 c1 -97 6 -93 12 10 l4 72 -8 0 c-5 0 -9 -37 -8 -82z" />
    <path d="M1521 2524 l1 -19 5 13 c3 7 2 16 -1 19 -3 4 -6 -2 -5 -13z" />
    <path d="M1771 2524 l1 -19 5 13 c3 7 2 16 -1 19 -3 4 -6 -2 -5 -13z" />
    <path d="M2021 2524 l1 -19 5 13 c3 7 2 16 -1 19 -3 4 -6 -2 -5 -13z" />
    <path d="M2271 2524 l1 -19 5 13 c3 7 2 16 -1 19 -3 4 -6 -2 -5 -13z" />
    <path d="M1540 2505 c0 -14 3 -25 8 -25 4 0 7 11 7 25 0 14 -3 25 -7 25 -5 0
-8 -11 -8 -25z" />
    <path d="M2290 2505 c0 -14 3 -25 8 -25 4 0 7 11 7 25 0 14 -3 25 -7 25 -5 0
-8 -11 -8 -25z" />
    <path d="M1790 2505 c0 -8 2 -15 4 -15 2 0 6 7 10 15 3 8 1 15 -4 15 -6 0 -10
-7 -10 -15z" />
    <path d="M2040 2505 c0 -8 2 -15 4 -15 2 0 6 7 10 15 3 8 1 15 -4 15 -6 0 -10
-7 -10 -15z" />
    <path d="M1610 2495 c0 -8 2 -15 4 -15 2 0 6 7 10 15 3 8 1 15 -4 15 -6 0 -10
-7 -10 -15z" />
    <path d="M1674 2455 c0 -30 3 -55 8 -55 4 0 8 25 8 55 0 30 -3 55 -7 55 -5 0
-8 -25 -9 -55z" />
    <path d="M2360 2495 c0 -8 2 -15 4 -15 2 0 6 7 10 15 3 8 1 15 -4 15 -6 0 -10
-7 -10 -15z" />
    <path d="M2424 2455 c0 -30 3 -55 8 -55 4 0 8 25 8 55 0 30 -3 55 -7 55 -5 0
-8 -25 -9 -55z" />
    <path d="M3336 2495 l-5 -15 14 0 14 0 -5 15 c-4 8 -7 15 -9 15 -2 0 -5 -7 -9
-15z" />
    <path d="M3386 2495 l-5 -15 14 0 14 0 -5 15 c-4 8 -7 15 -9 15 -2 0 -5 -7 -9
-15z" />
    <path d="M1517 2480 c3 -11 7 -20 9 -20 2 0 4 9 4 20 0 11 -4 20 -9 20 -5 0
-7 -9 -4 -20z" />
    <path d="M1767 2480 c3 -11 7 -20 9 -20 2 0 4 9 4 20 0 11 -4 20 -9 20 -5 0
-7 -9 -4 -20z" />
    <path d="M2017 2480 c3 -11 7 -20 9 -20 2 0 4 9 4 20 0 11 -4 20 -9 20 -5 0
-7 -9 -4 -20z" />
    <path d="M2267 2480 c3 -11 7 -20 9 -20 2 0 4 9 4 20 0 11 -4 20 -9 20 -5 0
-7 -9 -4 -20z" />
    <path d="M3386 2445 c4 -8 7 -15 9 -15 2 0 5 7 9 15 l5 15 -14 0 -14 0 5 -15z" />
    <path d="M1807 2440 c6 -7 9 -19 6 -26 l-5 -14 18 0 19 0 -10 8 c-5 4 -10 13
-10 21 0 8 -7 16 -15 19 l-15 5 12 -13z" />
    <path d="M2057 2440 c6 -7 9 -19 6 -26 l-5 -14 18 0 19 0 -10 8 c-5 4 -10 13
-10 21 0 8 -7 16 -15 19 l-15 5 12 -13z" />
    <path d="M2550 2430 c0 -7 3 -10 7 -7 3 4 3 10 0 14 -4 3 -7 0 -7 -7z" />
    <path d="M2861 2414 l1 -19 5 13 c3 7 2 16 -1 19 -3 4 -6 -2 -5 -13z" />
    <path d="M3345 2420 c3 -5 8 -10 11 -10 2 0 4 5 4 10 0 6 -5 10 -11 10 -5 0
-7 -4 -4 -10z" />
  </g>
  <g transform="translate(0.000000,500.000000) scale(0.100000,-0.100000)" fill="#827e7d" stroke="none">
    <path d="M1546 2585 c-15 -15 -25 -30 -22 -33 4 -3 13 3 21 14 l14 19 1 -14 0
-13 13 10 c6 5 23 12 37 15 l25 4 -27 2 c-14 0 -28 6 -30 13 l-4 11 -28 -28z
m31 -2 c-4 -3 -10 -3 -14 0 -3 4 0 7 7 7 7 0 10 -3 7 -7z" />
    <path d="M1593 2603 c4 -3 10 -3 14 0 3 4 0 7 -7 7 -7 0 -10 -3 -7 -7z" />
    <path d="M1843 2603 c4 -3 10 -3 14 0 3 4 0 7 -7 7 -7 0 -10 -3 -7 -7z" />
    <path d="M2093 2603 c4 -3 10 -3 14 0 3 4 0 7 -7 7 -7 0 -10 -3 -7 -7z" />
    <path d="M2296 2585 c-15 -15 -25 -30 -22 -33 4 -3 13 3 21 14 l14 19 1 -14 0
-13 13 10 c6 5 23 12 37 15 l25 4 -27 2 c-14 0 -28 6 -30 13 l-4 11 -28 -28z
m31 -2 c-4 -3 -10 -3 -14 0 -3 4 0 7 7 7 7 0 10 -3 7 -7z" />
    <path d="M2343 2603 c4 -3 10 -3 14 0 3 4 0 7 -7 7 -7 0 -10 -3 -7 -7z" />
    <path d="M2554 2520 c0 -52 1 -74 3 -47 2 26 2 68 0 95 -2 26 -3 4 -3 -48z" />
    <path d="M2856 2595 c-3 -8 -1 -15 4 -15 6 0 10 7 10 15 0 8 -2 15 -4 15 -2 0
-6 -7 -10 -15z" />
    <path d="M3191 2594 l1 -19 5 13 c3 7 2 16 -1 19 -3 4 -6 -2 -5 -13z" />
    <path d="M1807 2594 c-3 -3 -3 -12 0 -20 l5 -15 14 12 c8 6 11 15 8 20 -6 10
-18 12 -27 3z m20 -11 c-4 -3 -10 -3 -14 0 -3 4 0 7 7 7 7 0 10 -3 7 -7z" />
    <path d="M2057 2594 c-3 -3 -3 -12 0 -20 l5 -15 14 12 c8 6 11 15 8 20 -6 10
-18 12 -27 3z m20 -11 c-4 -3 -10 -3 -14 0 -3 4 0 7 7 7 7 0 10 -3 7 -7z" />
    <path d="M1858 2583 c7 -3 16 -2 19 1 4 3 -2 6 -13 5 l-19 -1 13 -5z" />
    <path d="M2108 2583 c7 -3 16 -2 19 1 4 3 -2 6 -13 5 l-19 -1 13 -5z" />
    <path d="M1913 2565 l-11 -12 8 -12 7 -13 6 23 c4 13 5 24 4 25 -1 1 -7 -4
-14 -11z" />
    <path d="M2163 2565 l-11 -12 8 -12 7 -13 6 23 c4 13 5 24 4 25 -1 1 -7 -4
-14 -11z" />
    <path d="M1650 2561 c0 -6 4 -13 10 -16 l10 -6 -6 15 c-7 18 -14 21 -14 7z" />
    <path d="M2400 2561 c0 -6 4 -13 10 -16 l10 -6 -6 15 c-7 18 -14 21 -14 7z" />
    <path d="M3314 2561 l9 -13 -13 -8 -12 -7 10 -7 c5 -3 15 0 21 8 l11 13 -17
14 -17 14 8 -14z" />
    <path d="M3407 2556 c-3 -8 0 -20 8 -26 l13 -11 7 11 c3 5 1 10 -5 10 l-12 0
6 15 c3 8 1 15 -3 15 -5 0 -11 -6 -14 -14z" />
    <path d="M1942 2500 c0 -19 2 -27 5 -17 2 9 2 25 0 35 -3 9 -5 1 -5 -18z" />
    <path d="M2192 2500 c0 -19 2 -27 5 -17 2 9 2 25 0 35 -3 9 -5 1 -5 -18z" />
    <path d="M3321 2516 l-11 -13 17 -14 17 -14 -8 14 -9 13 13 8 12 8 -10 6 c-5
3 -15 0 -21 -8z" />
    <path d="M3395 2520 c-3 -5 -1 -10 5 -10 l12 0 -6 -16 -6 -17 15 13 15 13 -11
13 c-14 17 -16 17 -24 4z" />
    <path d="M1628 2503 c12 -2 32 -2 45 0 12 2 2 4 -23 4 -25 0 -35 -2 -22 -4z" />
    <path d="M2378 2503 c12 -2 32 -2 45 0 12 2 2 4 -23 4 -25 0 -35 -2 -22 -4z" />
    <path d="M1545 2445 c0 -13 6 -30 13 -37 l12 -12 0 11 c0 6 -6 14 -12 16 l-13
5 13 10 13 9 -13 11 -14 11 1 -24z" />
    <path d="M1795 2445 c0 -13 4 -27 9 -32 l9 -8 -8 14 -8 13 12 8 12 7 -13 11
-14 11 1 -24z" />
    <path d="M2045 2445 c0 -13 4 -27 9 -32 l9 -8 -8 14 -8 13 12 8 12 7 -13 11
-14 11 1 -24z" />
    <path d="M2295 2445 c0 -13 6 -30 13 -37 l12 -12 0 11 c0 6 -6 14 -12 16 l-13
5 13 10 13 9 -13 11 -14 11 1 -24z" />
    <path d="M1648 2448 c-3 -7 -3 -19 -1 -25 5 -15 33 -17 33 -3 0 6 -5 10 -11
10 l-11 0 6 15 c3 8 1 15 -3 15 -5 0 -11 -6 -13 -12z" />
    <path d="M1926 2445 c-3 -8 -1 -15 3 -15 5 0 11 7 15 15 3 8 1 15 -3 15 -5 0
-11 -7 -15 -15z" />
    <path d="M2176 2445 c-3 -8 -1 -15 3 -15 5 0 11 7 15 15 3 8 1 15 -3 15 -5 0
-11 -7 -15 -15z" />
    <path d="M2398 2448 c-3 -7 -3 -19 -1 -25 5 -15 33 -17 33 -3 0 6 -5 10 -11
10 l-11 0 6 15 c3 8 1 15 -3 15 -5 0 -11 -6 -13 -12z" />
    <path d="M3357 2443 c3 -7 10 -13 15 -13 l10 0 -6 -16 -6 -17 15 13 16 13 -12
7 c-6 4 -9 12 -6 17 3 5 -3 9 -13 9 l-18 0 5 -13z" />
    <path d="M1890 2410 l-15 -10 18 0 c9 0 17 5 17 10 0 12 -1 12 -20 0z" />
    <path d="M2140 2410 l-15 -10 18 0 c9 0 17 5 17 10 0 12 -1 12 -20 0z" />
  </g>
  <g transform="translate(0.000000,500.000000) scale(0.100000,-0.100000)" fill="#fee6e6" stroke="none">
    <path d="M1223 3183 c4 -3 10 -3 14 0 3 4 0 7 -7 7 -7 0 -10 -3 -7 -7z" />
    <path d="M1293 3173 c4 -3 10 -3 14 0 3 4 0 7 -7 7 -7 0 -10 -3 -7 -7z" />
    <path d="M918 3134 c-39 -21 -35 -28 5 -8 37 19 44 24 31 24 -5 -1 -21 -8 -36
-16z" />
    <path d="M1405 3140 c3 -5 8 -10 11 -10 3 0 2 5 -1 10 -3 6 -8 10 -11 10 -3 0
-2 -4 1 -10z" />
    <path d="M1430 3126 c0 -2 7 -7 16 -10 l15 -6 -6 10 c-6 10 -25 14 -25 6z" />
    <path d="M3310 3090 c0 -7 3 -10 7 -7 3 4 3 10 0 14 -4 3 -7 0 -7 -7z" />
    <path d="M4010 3060 c0 -7 3 -10 7 -7 3 4 3 10 0 14 -4 3 -7 0 -7 -7z" />
    <path d="M774 3028 l-7 -11 11 7 c7 4 12 9 12 12 0 8 -9 4 -16 -8z" />
    <path d="M3330 3030 c0 -7 3 -10 7 -7 3 4 3 10 0 14 -4 3 -7 0 -7 -7z" />
    <path d="M1263 3003 c4 -3 10 -3 14 0 3 4 0 7 -7 7 -7 0 -10 -3 -7 -7z" />
    <path d="M724 2968 l-7 -11 11 7 c7 4 12 9 12 12 0 8 -9 4 -16 -8z" />
    <path d="M684 2908 l-7 -11 11 7 c7 4 12 9 12 12 0 8 -9 4 -16 -8z" />
    <path d="M1670 2870 c0 -7 3 -10 7 -7 3 4 3 10 0 14 -4 3 -7 0 -7 -7z" />
    <path d="M660 2860 c0 -7 3 -10 7 -7 3 4 3 10 0 14 -4 3 -7 0 -7 -7z" />
    <path d="M884 2858 l-7 -11 11 7 c7 4 12 9 12 12 0 8 -9 4 -16 -8z" />
    <path d="M1690 2790 c0 -7 3 -10 7 -7 3 4 3 10 0 14 -4 3 -7 0 -7 -7z" />
    <path d="M620 2740 c0 -7 3 -10 7 -7 3 4 3 10 0 14 -4 3 -7 0 -7 -7z" />
    <path d="M830 2730 c0 -7 3 -10 7 -7 3 4 3 10 0 14 -4 3 -7 0 -7 -7z" />
    <path d="M3440 2720 c0 -7 3 -10 7 -7 3 4 3 10 0 14 -4 3 -7 0 -7 -7z" />
    <path d="M1511 2294 l1 -19 5 13 c3 7 2 16 -1 19 -3 4 -6 -2 -5 -13z" />
    <path d="M3736 2293 l-7 -18 12 12 c7 7 10 15 7 18 -3 3 -9 -2 -12 -12z" />
    <path d="M3600 2270 c0 -7 3 -10 7 -7 3 4 3 10 0 14 -4 3 -7 0 -7 -7z" />
    <path d="M3720 2250 c0 -7 3 -10 7 -7 3 4 3 10 0 14 -4 3 -7 0 -7 -7z" />
    <path d="M630 2210 c0 -7 3 -10 7 -7 3 4 3 10 0 14 -4 3 -7 0 -7 -7z" />
    <path d="M3450 2190 c0 -7 3 -10 7 -7 3 4 3 10 0 14 -4 3 -7 0 -7 -7z" />
    <path d="M3460 2160 c0 -7 3 -10 7 -7 3 4 3 10 0 14 -4 3 -7 0 -7 -7z" />
    <path d="M1464 2138 l-7 -11 11 7 c12 7 16 16 8 16 -3 0 -8 -5 -12 -12z" />
    <path d="M3470 2130 c0 -7 3 -10 7 -7 3 4 3 10 0 14 -4 3 -7 0 -7 -7z" />
    <path d="M920 2086 c0 -2 8 -10 18 -17 l17 -14 -14 18 c-13 16 -21 21 -21 13z" />
    <path d="M1305 2000 l-6 -10 15 6 c18 7 21 14 7 14 -6 0 -13 -4 -16 -10z" />
    <path d="M1534 1968 l-7 -11 11 7 c7 4 12 9 12 12 0 8 -9 4 -16 -8z" />
    <path d="M3790 1940 c0 -7 3 -10 7 -7 3 4 3 10 0 14 -4 3 -7 0 -7 -7z" />
    <path d="M3540 1930 c0 -7 3 -10 7 -7 3 4 3 10 0 14 -4 3 -7 0 -7 -7z" />
    <path d="M815 1920 c3 -5 8 -10 11 -10 3 0 2 5 -1 10 -3 6 -8 10 -11 10 -3 0
-2 -4 1 -10z" />
    <path d="M1464 1898 l-7 -11 11 7 c12 7 16 16 8 16 -3 0 -8 -5 -12 -12z" />
    <path d="M3550 1900 c0 -7 3 -10 7 -7 3 4 3 10 0 14 -4 3 -7 0 -7 -7z" />
    <path d="M3770 1880 c0 -7 3 -10 7 -7 3 4 3 10 0 14 -4 3 -7 0 -7 -7z" />
    <path d="M1405 1860 l-6 -10 15 6 c18 7 21 14 7 14 -6 0 -13 -4 -16 -10z" />
    <path d="M1353 1833 c4 -3 10 -3 14 0 3 4 0 7 -7 7 -7 0 -10 -3 -7 -7z" />
  </g>
  <g transform="translate(0.000000,500.000000) scale(0.100000,-0.100000)" fill="#fed9d9" stroke="none">
    <path d="M1043 3173 c4 -3 10 -3 14 0 3 4 0 7 -7 7 -7 0 -10 -3 -7 -7z" />
    <path d="M1303 3173 c4 -3 10 -3 14 0 3 4 0 7 -7 7 -7 0 -10 -3 -7 -7z" />
    <path d="M1393 3143 c4 -3 10 -3 14 0 3 4 0 7 -7 7 -7 0 -10 -3 -7 -7z" />
    <path d="M4040 3140 c0 -7 3 -10 7 -7 3 4 3 10 0 14 -4 3 -7 0 -7 -7z" />
    <path d="M3300 3120 c0 -7 3 -10 7 -7 3 4 3 10 0 14 -4 3 -7 0 -7 -7z" />
    <path d="M1495 3090 c3 -5 8 -10 11 -10 3 0 2 5 -1 10 -3 6 -8 10 -11 10 -3 0
-2 -4 1 -10z" />
    <path d="M2464 2978 l-7 -11 11 7 c7 4 12 9 12 12 0 8 -9 4 -16 -8z" />
    <path d="M3370 2920 c0 -7 3 -10 7 -7 3 4 3 10 0 14 -4 3 -7 0 -7 -7z" />
    <path d="M3960 2920 c0 -7 3 -10 7 -7 3 4 3 10 0 14 -4 3 -7 0 -7 -7z" />
    <path d="M1425 2890 c3 -5 8 -10 11 -10 3 0 2 5 -1 10 -3 6 -8 10 -11 10 -3 0
-2 -4 1 -10z" />
    <path d="M3210 2861 c0 -5 5 -13 10 -16 6 -3 10 -2 10 4 0 5 -4 13 -10 16 -5
3 -10 2 -10 -4z" />
    <path d="M4113 2863 c4 -3 10 -3 14 0 3 4 0 7 -7 7 -7 0 -10 -3 -7 -7z" />
    <path d="M850 2790 c0 -7 3 -10 7 -7 3 4 3 10 0 14 -4 3 -7 0 -7 -7z" />
    <path d="M3910 2780 c0 -7 3 -10 7 -7 3 4 3 10 0 14 -4 3 -7 0 -7 -7z" />
    <path d="M620 2750 c0 -7 3 -10 7 -7 3 4 3 10 0 14 -4 3 -7 0 -7 -7z" />
    <path d="M1495 2750 c3 -5 8 -10 11 -10 3 0 2 5 -1 10 -3 6 -8 10 -11 10 -3 0
-2 -4 1 -10z" />
    <path d="M3430 2750 c0 -7 3 -10 7 -7 3 4 3 10 0 14 -4 3 -7 0 -7 -7z" />
    <path d="M3590 2300 c0 -7 3 -10 7 -7 3 4 3 10 0 14 -4 3 -7 0 -7 -7z" />
    <path d="M3730 2280 c0 -7 3 -10 7 -7 3 4 3 10 0 14 -4 3 -7 0 -7 -7z" />
    <path d="M3440 2220 c0 -7 3 -10 7 -7 3 4 3 10 0 14 -4 3 -7 0 -7 -7z" />
    <path d="M630 2200 c0 -7 3 -10 7 -7 3 4 3 10 0 14 -4 3 -7 0 -7 -7z" />
    <path d="M3880 2200 c0 -7 3 -10 7 -7 3 4 3 10 0 14 -4 3 -7 0 -7 -7z" />
    <path d="M3870 2170 c0 -7 3 -10 7 -7 3 4 3 10 0 14 -4 3 -7 0 -7 -7z" />
    <path d="M1444 2108 l-7 -11 11 7 c12 7 16 16 8 16 -3 0 -8 -5 -12 -12z" />
    <path d="M3490 2070 c0 -7 3 -10 7 -7 3 4 3 10 0 14 -4 3 -7 0 -7 -7z" />
    <path d="M1374 2038 l-7 -11 11 7 c12 7 16 16 8 16 -3 0 -8 -5 -12 -12z" />
    <path d="M1344 2018 l-7 -11 11 7 c12 7 16 16 8 16 -3 0 -8 -5 -12 -12z" />
    <path d="M3520 1990 c0 -7 3 -10 7 -7 3 4 3 10 0 14 -4 3 -7 0 -7 -7z" />
    <path d="M3800 1970 c0 -7 3 -10 7 -7 3 4 3 10 0 14 -4 3 -7 0 -7 -7z" />
    <path d="M3530 1960 c0 -7 3 -10 7 -7 3 4 3 10 0 14 -4 3 -7 0 -7 -7z" />
    <path d="M825 1910 c3 -5 8 -10 11 -10 3 0 2 5 -1 10 -3 6 -8 10 -11 10 -3 0
-2 -4 1 -10z" />
    <path d="M1454 1888 l-7 -11 11 7 c12 7 16 16 8 16 -3 0 -8 -5 -12 -12z" />
    <path d="M1424 1868 l-7 -11 11 7 c12 7 16 16 8 16 -3 0 -8 -5 -12 -12z" />
    <path d="M3560 1870 c0 -7 3 -10 7 -7 3 4 3 10 0 14 -4 3 -7 0 -7 -7z" />
    <path d="M1043 1813 c4 -3 10 -3 14 0 3 4 0 7 -7 7 -7 0 -10 -3 -7 -7z" />
  </g>
  <g transform="translate(0.000000,500.000000) scale(0.100000,-0.100000)" fill="#e9e2e0" stroke="none">
    <path d="M1570 2600 c0 -7 3 -10 7 -7 3 4 3 10 0 14 -4 3 -7 0 -7 -7z" />
    <path d="M1620 2606 c0 -2 7 -7 16 -10 l15 -6 -6 10 c-6 10 -25 14 -25 6z" />
    <path d="M2320 2600 c0 -7 3 -10 7 -7 3 4 3 10 0 14 -4 3 -7 0 -7 -7z" />
    <path d="M2370 2606 c0 -2 7 -7 16 -10 l15 -6 -6 10 c-6 10 -25 14 -25 6z" />
    <path d="M1540 2585 l-12 -15 10 0 c12 0 26 19 19 26 -2 2 -10 -2 -17 -11z" />
    <path d="M2290 2585 l-12 -15 10 0 c12 0 26 19 19 26 -2 2 -10 -2 -17 -11z" />
    <path d="M2520 2500 l0 -100 10 0 10 0 0 100 0 100 -10 0 -10 0 0 -100z" />
    <path d="M1780 2571 l-11 -21 10 0 c10 0 24 30 17 37 -2 3 -9 -5 -16 -16z" />
    <path d="M1875 2580 c3 -5 8 -10 11 -10 2 0 4 5 4 10 0 6 -5 10 -11 10 -5 0
-7 -4 -4 -10z" />
    <path d="M2030 2571 l-11 -21 10 0 c10 0 24 30 17 37 -2 3 -9 -5 -16 -16z" />
    <path d="M2125 2580 c3 -5 8 -10 11 -10 2 0 4 5 4 10 0 6 -5 10 -11 10 -5 0
-7 -4 -4 -10z" />
    <path d="M1801 2552 c-13 -25 -14 -42 -2 -42 8 0 23 52 16 58 -2 2 -8 -5 -14
-16z" />
    <path d="M2051 2552 c-13 -25 -14 -42 -2 -42 8 0 23 52 16 58 -2 2 -8 -5 -14
-16z" />
    <path d="M1523 2553 c4 -3 10 -3 14 0 3 4 0 7 -7 7 -7 0 -10 -3 -7 -7z" />
    <path d="M2273 2553 c4 -3 10 -3 14 0 3 4 0 7 -7 7 -7 0 -10 -3 -7 -7z" />
    <path d="M3320 2539 c0 -5 5 -7 10 -4 6 3 10 8 10 11 0 2 -4 4 -10 4 -5 0 -10
-5 -10 -11z" />
    <path d="M3405 2540 c3 -5 8 -10 11 -10 2 0 4 5 4 10 0 6 -5 10 -11 10 -5 0
-7 -4 -4 -10z" />
    <path d="M1540 2530 c0 -5 5 -10 10 -10 6 0 10 5 10 10 0 6 -4 10 -10 10 -5 0
-10 -4 -10 -10z" />
    <path d="M2290 2530 c0 -5 5 -10 10 -10 6 0 10 5 10 10 0 6 -4 10 -10 10 -5 0
-10 -4 -10 -10z" />
    <path d="M1516 2511 c-4 -7 -5 -15 -2 -18 9 -9 19 4 14 18 l-4 13 -8 -13z" />
    <path d="M1766 2511 c-4 -7 -5 -15 -2 -18 9 -9 19 4 14 18 l-4 13 -8 -13z" />
    <path d="M2016 2511 c-4 -7 -5 -15 -2 -18 9 -9 19 4 14 18 l-4 13 -8 -13z" />
    <path d="M2266 2511 c-4 -7 -5 -15 -2 -18 9 -9 19 4 14 18 l-4 13 -8 -13z" />
    <path d="M3315 2511 l-5 -10 20 2 c11 1 20 5 20 9 0 11 -28 10 -35 -1z" />
    <path d="M3390 2512 c0 -4 9 -8 20 -9 l20 -2 -5 10 c-7 11 -35 12 -35 1z" />
    <path d="M1790 2486 c0 -9 5 -16 10 -16 6 0 10 4 10 9 0 6 -4 13 -10 16 l-10
6 0 -15z" />
    <path d="M2040 2486 c0 -9 5 -16 10 -16 6 0 10 4 10 9 0 6 -4 13 -10 16 l-10
6 0 -15z" />
    <path d="M1540 2474 l0 -15 10 6 c6 3 10 10 10 16 0 5 -4 9 -10 9 -5 0 -10 -7
-10 -16z" />
    <path d="M1655 2477 c-4 -10 -5 -21 -1 -24 10 -10 18 4 13 24 l-4 18 -8 -18z" />
    <path d="M2290 2474 l0 -15 10 6 c6 3 10 10 10 16 0 5 -4 9 -10 9 -5 0 -10 -7
-10 -16z" />
    <path d="M2405 2477 c-4 -10 -5 -21 -1 -24 10 -10 18 4 13 24 l-4 18 -8 -18z" />
    <path d="M1930 2460 c0 -5 5 -10 11 -10 5 0 7 5 4 10 -3 6 -8 10 -11 10 -2 0
-4 -4 -4 -10z" />
    <path d="M2180 2460 c0 -5 5 -10 11 -10 5 0 7 5 4 10 -3 6 -8 10 -11 10 -2 0
-4 -4 -4 -10z" />
    <path d="M1560 2440 c0 -6 7 -13 15 -17 24 -9 27 1 5 15 l-20 12 0 -10z" />
    <path d="M1816 2437 c3 -10 9 -15 12 -12 3 3 0 11 -7 18 l-12 12 7 -18z" />
    <path d="M2066 2437 c3 -10 9 -15 12 -12 3 3 0 11 -7 18 l-12 12 7 -18z" />
    <path d="M2310 2440 c0 -6 7 -13 15 -17 24 -9 27 1 5 15 l-20 12 0 -10z" />
    <path d="M1873 2423 c4 -3 10 -3 14 0 3 4 0 7 -7 7 -7 0 -10 -3 -7 -7z" />
    <path d="M2123 2423 c4 -3 10 -3 14 0 3 4 0 7 -7 7 -7 0 -10 -3 -7 -7z" />
    <path d="M1900 2410 c0 -7 3 -10 7 -7 3 4 3 10 0 14 -4 3 -7 0 -7 -7z" />
    <path d="M2150 2410 c0 -7 3 -10 7 -7 3 4 3 10 0 14 -4 3 -7 0 -7 -7z" />
    <path d="M1588 2398 c5 -5 16 -8 23 -6 l13 4 -23 7 -24 6 11 -11z" />
    <path d="M1838 2398 c5 -5 16 -8 23 -6 l13 4 -23 7 -24 6 11 -11z" />
    <path d="M2088 2398 c5 -5 16 -8 23 -6 l13 4 -23 7 -24 6 11 -11z" />
    <path d="M2338 2398 c5 -5 16 -8 23 -6 l13 4 -23 7 -24 6 11 -11z" />
  </g>
  <g transform="translate(0.000000,500.000000) scale(0.100000,-0.100000)" fill="#ffabab" stroke="none">
    <path d="M3215 2850 c3 -5 8 -10 11 -10 3 0 2 5 -1 10 -3 6 -8 10 -11 10 -3 0
-2 -4 1 -10z" />
    <path d="M1548 2743 c28 -2 76 -2 105 0 28 2 5 3 -53 3 -58 0 -81 -1 -52 -3z" />
    <path d="M1564 1998 l-7 -11 11 7 c12 7 16 16 8 16 -3 0 -8 -5 -12 -12z" />
  </g>
  <g transform="translate(0.000000,500.000000) scale(0.100000,-0.100000)" fill="#474545" stroke="none">
    <path d="M2534 2500 c0 -58 1 -81 3 -52 2 28 2 76 0 105 -2 28 -3 5 -3 -53z" />
    <path d="M1540 2582 c0 -5 7 -9 15 -9 8 0 12 4 9 9 -3 4 -9 8 -15 8 -5 0 -9
-4 -9 -8z" />
    <path d="M1786 2574 c-9 -24 -7 -31 5 -11 l10 17 11 -6 11 -7 -7 11 c-10 17
-23 15 -30 -4z" />
    <path d="M2036 2574 c-9 -24 -7 -31 5 -11 l10 17 11 -6 11 -7 -7 11 c-10 17
-23 15 -30 -4z" />
    <path d="M2290 2582 c0 -5 7 -9 15 -9 8 0 12 4 9 9 -3 4 -9 8 -15 8 -5 0 -9
-4 -9 -8z" />
    <path d="M2788 2583 c18 -2 45 -2 60 0 15 2 0 4 -33 4 -33 0 -45 -2 -27 -4z" />
    <path d="M1665 2550 c-3 -5 -1 -10 4 -10 6 0 11 5 11 10 0 6 -2 10 -4 10 -3 0
-8 -4 -11 -10z" />
    <path d="M2415 2550 c-3 -5 -1 -10 4 -10 6 0 11 5 11 10 0 6 -2 10 -4 10 -3 0
-8 -4 -11 -10z" />
    <path d="M3300 2538 c0 -4 7 -8 15 -8 8 0 15 4 15 8 0 5 -7 9 -15 9 -8 0 -15
-4 -15 -9z" />
    <path d="M3410 2538 c0 -4 7 -8 15 -8 8 0 15 4 15 8 0 5 -7 9 -15 9 -8 0 -15
-4 -15 -9z" />
    <path d="M1540 2529 c0 -5 5 -7 10 -4 6 3 10 8 10 11 0 2 -4 4 -10 4 -5 0 -10
-5 -10 -11z" />
    <path d="M1790 2525 c0 -8 2 -15 4 -15 2 0 6 7 10 15 3 8 1 15 -4 15 -6 0 -10
-7 -10 -15z" />
    <path d="M2040 2525 c0 -8 2 -15 4 -15 2 0 6 7 10 15 3 8 1 15 -4 15 -6 0 -10
-7 -10 -15z" />
    <path d="M2290 2529 c0 -5 5 -7 10 -4 6 3 10 8 10 11 0 2 -4 4 -10 4 -5 0 -10
-5 -10 -11z" />
    <path d="M1521 2504 l1 -19 5 13 c3 7 2 16 -1 19 -3 4 -6 -2 -5 -13z" />
    <path d="M1771 2504 l1 -19 5 13 c3 7 2 16 -1 19 -3 4 -6 -2 -5 -13z" />
    <path d="M2021 2504 l1 -19 5 13 c3 7 2 16 -1 19 -3 4 -6 -2 -5 -13z" />
    <path d="M2271 2504 l1 -19 5 13 c3 7 2 16 -1 19 -3 4 -6 -2 -5 -13z" />
    <path d="M3320 2512 c0 -5 7 -9 15 -9 8 0 12 4 9 9 -3 4 -9 8 -15 8 -5 0 -9
-4 -9 -8z" />
    <path d="M3396 2512 c-3 -5 1 -9 9 -9 8 0 15 4 15 9 0 4 -4 8 -9 8 -6 0 -12
-4 -15 -8z" />
    <path d="M2805 2500 l-50 -7 53 -1 52 -2 0 10 c0 6 -1 9 -2 8 -2 0 -25 -4 -53
-8z" />
    <path d="M1790 2485 c0 -8 4 -15 10 -15 5 0 7 7 4 15 -4 8 -8 15 -10 15 -2 0
-4 -7 -4 -15z" />
    <path d="M2040 2485 c0 -8 4 -15 10 -15 5 0 7 7 4 15 -4 8 -8 15 -10 15 -2 0
-4 -7 -4 -15z" />
    <path d="M1541 2474 l1 -19 5 13 c3 7 2 16 -1 19 -3 4 -6 -2 -5 -13z" />
    <path d="M1657 2470 c-3 -11 -1 -20 4 -20 5 0 9 9 9 20 0 11 -2 20 -4 20 -2 0
-6 -9 -9 -20z" />
    <path d="M2291 2474 l1 -19 5 13 c3 7 2 16 -1 19 -3 4 -6 -2 -5 -13z" />
    <path d="M2407 2470 c-3 -11 -1 -20 4 -20 5 0 9 9 9 20 0 11 -2 20 -4 20 -2 0
-6 -9 -9 -20z" />
    <path d="M1930 2460 c0 -7 3 -10 7 -7 3 4 3 10 0 14 -4 3 -7 0 -7 -7z" />
    <path d="M2180 2460 c0 -7 3 -10 7 -7 3 4 3 10 0 14 -4 3 -7 0 -7 -7z" />
    <path d="M1550 2446 c0 -2 7 -9 15 -16 l15 -13 -6 17 c-3 9 -10 16 -15 16 -5
0 -9 -2 -9 -4z" />
    <path d="M1903 2443 c-17 -6 -17 -20 0 -20 8 0 14 6 14 14 0 7 -1 13 -1 12 -1
0 -7 -3 -13 -6z" />
    <path d="M2153 2443 c-17 -6 -17 -20 0 -20 8 0 14 6 14 14 0 7 -1 13 -1 12 -1
0 -7 -3 -13 -6z" />
    <path d="M2300 2446 c0 -2 7 -9 15 -16 l15 -13 -6 17 c-3 9 -10 16 -15 16 -5
0 -9 -2 -9 -4z" />
    <path d="M1635 2410 c-3 -5 -1 -10 4 -10 6 0 11 5 11 10 0 6 -2 10 -4 10 -3 0
-8 -4 -11 -10z" />
    <path d="M2385 2410 c-3 -5 -1 -10 4 -10 6 0 11 5 11 10 0 6 -2 10 -4 10 -3 0
-8 -4 -11 -10z" />
  </g>
  <g transform="translate(0.000000,500.000000) scale(0.100000,-0.100000)" fill="#d5cfcd" stroke="none">
    <path d="M3424 2594 c-4 -10 -9 -22 -11 -26 -2 -5 0 -8 5 -8 10 0 24 41 17 48
-3 3 -8 -4 -11 -14z" />
    <path d="M1650 2585 c7 -8 17 -15 22 -15 5 0 3 7 -6 15 -8 8 -18 15 -22 15 -3
0 -1 -7 6 -15z" />
    <path d="M2400 2585 c7 -8 17 -15 22 -15 5 0 3 7 -6 15 -8 8 -18 15 -22 15 -3
0 -1 -7 6 -15z" />
    <path d="M3305 2590 c3 -5 8 -10 11 -10 2 0 4 5 4 10 0 6 -5 10 -11 10 -5 0
-7 -4 -4 -10z" />
    <path d="M1790 2580 c0 -7 3 -10 7 -7 3 4 3 10 0 14 -4 3 -7 0 -7 -7z" />
    <path d="M2040 2580 c0 -7 3 -10 7 -7 3 4 3 10 0 14 -4 3 -7 0 -7 -7z" />
    <path d="M1903 2553 c4 -3 10 -3 14 0 3 4 0 7 -7 7 -7 0 -10 -3 -7 -7z" />
    <path d="M2153 2553 c4 -3 10 -3 14 0 3 4 0 7 -7 7 -7 0 -10 -3 -7 -7z" />
    <path d="M1545 2540 c-3 -5 -1 -10 4 -10 6 0 11 5 11 10 0 6 -2 10 -4 10 -3 0
-8 -4 -11 -10z" />
    <path d="M1795 2540 c-3 -5 -1 -10 4 -10 6 0 11 5 11 10 0 6 -2 10 -4 10 -3 0
-8 -4 -11 -10z" />
    <path d="M1933 2543 c4 -3 10 -3 14 0 3 4 0 7 -7 7 -7 0 -10 -3 -7 -7z" />
    <path d="M2045 2540 c-3 -5 -1 -10 4 -10 6 0 11 5 11 10 0 6 -2 10 -4 10 -3 0
-8 -4 -11 -10z" />
    <path d="M2183 2543 c4 -3 10 -3 14 0 3 4 0 7 -7 7 -7 0 -10 -3 -7 -7z" />
    <path d="M2295 2540 c-3 -5 -1 -10 4 -10 6 0 11 5 11 10 0 6 -2 10 -4 10 -3 0
-8 -4 -11 -10z" />
    <path d="M3300 2540 c0 -7 3 -10 7 -7 3 4 3 10 0 14 -4 3 -7 0 -7 -7z" />
    <path d="M3430 2540 c0 -7 3 -10 7 -7 3 4 3 10 0 14 -4 3 -7 0 -7 -7z" />
    <path d="M1910 2500 c0 -11 5 -20 10 -20 6 0 10 9 10 20 0 11 -4 20 -10 20 -5
0 -10 -9 -10 -20z" />
    <path d="M2160 2500 c0 -11 5 -20 10 -20 6 0 10 9 10 20 0 11 -4 20 -10 20 -5
0 -10 -9 -10 -20z" />
    <path d="M2850 2510 c0 -7 3 -10 7 -7 3 4 3 10 0 14 -4 3 -7 0 -7 -7z" />
    <path d="M3345 2480 c3 -5 8 -10 11 -10 2 0 4 5 4 10 0 6 -5 10 -11 10 -5 0
-7 -4 -4 -10z" />
    <path d="M3380 2479 c0 -5 5 -7 10 -4 6 3 10 8 10 11 0 2 -4 4 -10 4 -5 0 -10
-5 -10 -11z" />
    <path d="M1790 2469 c0 -5 5 -7 10 -4 6 3 10 8 10 11 0 2 -4 4 -10 4 -5 0 -10
-5 -10 -11z" />
    <path d="M2040 2469 c0 -5 5 -7 10 -4 6 3 10 8 10 11 0 2 -4 4 -10 4 -5 0 -10
-5 -10 -11z" />
    <path d="M3333 2456 c4 -10 7 -22 7 -27 0 -5 4 -9 9 -9 12 0 2 38 -12 47 l-10
6 6 -17z" />
    <path d="M3395 2460 c-3 -5 -1 -10 4 -10 6 0 11 5 11 10 0 6 -2 10 -4 10 -3 0
-8 -4 -11 -10z" />
    <path d="M1653 2453 c4 -3 10 -3 14 0 3 4 0 7 -7 7 -7 0 -10 -3 -7 -7z" />
    <path d="M2403 2453 c4 -3 10 -3 14 0 3 4 0 7 -7 7 -7 0 -10 -3 -7 -7z" />
    <path d="M1553 2443 c4 -3 10 -3 14 0 3 4 0 7 -7 7 -7 0 -10 -3 -7 -7z" />
    <path d="M1803 2443 c4 -3 10 -3 14 0 3 4 0 7 -7 7 -7 0 -10 -3 -7 -7z" />
    <path d="M2053 2443 c4 -3 10 -3 14 0 3 4 0 7 -7 7 -7 0 -10 -3 -7 -7z" />
    <path d="M2303 2443 c4 -3 10 -3 14 0 3 4 0 7 -7 7 -7 0 -10 -3 -7 -7z" />
    <path d="M1885 2430 c-3 -5 -1 -10 4 -10 6 0 11 5 11 10 0 6 -2 10 -4 10 -3 0
-8 -4 -11 -10z" />
    <path d="M1923 2433 c4 -3 10 -3 14 0 3 4 0 7 -7 7 -7 0 -10 -3 -7 -7z" />
    <path d="M2135 2430 c-3 -5 -1 -10 4 -10 6 0 11 5 11 10 0 6 -2 10 -4 10 -3 0
-8 -4 -11 -10z" />
    <path d="M2173 2433 c4 -3 10 -3 14 0 3 4 0 7 -7 7 -7 0 -10 -3 -7 -7z" />
    <path d="M3385 2430 c-3 -5 -1 -10 4 -10 6 0 11 5 11 10 0 6 -2 10 -4 10 -3 0
-8 -4 -11 -10z" />
    <path d="M1632 2416 c15 -16 48 -18 48 -3 l0 12 -29 1 -30 2 11 -12z" />
    <path d="M2382 2416 c15 -16 48 -18 48 -3 l0 12 -29 1 -30 2 11 -12z" />
    <path d="M1560 2410 c0 -5 5 -10 11 -10 5 0 7 5 4 10 -3 6 -8 10 -11 10 -2 0
-4 -4 -4 -10z" />
    <path d="M1805 2410 c3 -5 8 -10 11 -10 2 0 4 5 4 10 0 6 -5 10 -11 10 -5 0
-7 -4 -4 -10z" />
    <path d="M2055 2410 c3 -5 8 -10 11 -10 2 0 4 5 4 10 0 6 -5 10 -11 10 -5 0
-7 -4 -4 -10z" />
    <path d="M2310 2410 c0 -5 5 -10 11 -10 5 0 7 5 4 10 -3 6 -8 10 -11 10 -2 0
-4 -4 -4 -10z" />
  </g>
  <g transform="translate(0.000000,500.000000) scale(0.100000,-0.100000)" fill="#9f9998" stroke="none">
    <path d="M1893 2593 c4 -3 10 -3 14 0 3 4 0 7 -7 7 -7 0 -10 -3 -7 -7z" />
    <path d="M2143 2593 c4 -3 10 -3 14 0 3 4 0 7 -7 7 -7 0 -10 -3 -7 -7z" />
    <path d="M3306 2587 c3 -10 9 -15 12 -12 3 3 0 11 -7 18 l-12 12 7 -18z" />
    <path d="M3425 2589 c-4 -6 -5 -12 -2 -15 2 -3 7 2 10 11 7 17 1 20 -8 4z" />
    <path d="M1551 2553 l-11 -28 15 19 c8 11 15 23 15 28 0 15 -7 8 -19 -19z" />
    <path d="M1784 2568 l-7 -11 11 7 c7 4 12 9 12 12 0 8 -9 4 -16 -8z" />
    <path d="M1801 2553 l-11 -28 15 19 c8 11 15 23 15 28 0 15 -7 8 -19 -19z" />
    <path d="M2034 2568 l-7 -11 11 7 c12 7 16 16 8 16 -3 0 -8 -5 -12 -12z" />
    <path d="M2051 2553 l-11 -28 15 19 c8 11 15 23 15 28 0 15 -7 8 -19 -19z" />
    <path d="M2301 2553 l-11 -28 15 19 c8 11 15 23 15 28 0 15 -7 8 -19 -19z" />
    <path d="M3295 2550 c3 -5 8 -10 11 -10 2 0 4 5 4 10 0 6 -5 10 -11 10 -5 0
-7 -4 -4 -10z" />
    <path d="M3434 2548 l-7 -11 11 7 c7 4 12 9 12 12 0 8 -9 4 -16 -8z" />
    <path d="M2850 2500 c0 -7 3 -10 7 -7 3 4 3 10 0 14 -4 3 -7 0 -7 -7z" />
    <path d="M3336 2482 c-5 -9 9 -62 16 -62 2 0 3 13 3 29 0 32 -9 48 -19 33z
m11 -19 c-4 -3 -7 0 -7 7 0 7 3 10 7 7 3 -4 3 -10 0 -14z" />
    <path d="M3385 2480 c-4 -6 -3 -16 3 -22 l10 -10 7 12 c4 6 3 16 -3 22 l-10
10 -7 -12z m12 -17 c-4 -3 -7 0 -7 7 0 7 3 10 7 7 3 -4 3 -10 0 -14z" />
    <path d="M1934 2468 l-7 -11 11 7 c12 7 16 16 8 16 -3 0 -8 -5 -12 -12z" />
    <path d="M2184 2468 l-7 -11 11 7 c12 7 16 16 8 16 -3 0 -8 -5 -12 -12z" />
    <path d="M1525 2460 c3 -5 8 -10 11 -10 3 0 2 5 -1 10 -3 6 -8 10 -11 10 -3 0
-2 -4 1 -10z" />
    <path d="M1775 2460 c3 -5 8 -10 11 -10 3 0 2 5 -1 10 -3 6 -8 10 -11 10 -3 0
-2 -4 1 -10z" />
    <path d="M1910 2460 c0 -7 3 -10 7 -7 3 4 3 10 0 14 -4 3 -7 0 -7 -7z" />
    <path d="M2025 2460 c3 -5 8 -10 11 -10 3 0 2 5 -1 10 -3 6 -8 10 -11 10 -3 0
-2 -4 1 -10z" />
    <path d="M2160 2460 c0 -7 3 -10 7 -7 3 4 3 10 0 14 -4 3 -7 0 -7 -7z" />
    <path d="M2275 2460 c3 -5 8 -10 11 -10 3 0 2 5 -1 10 -3 6 -8 10 -11 10 -3 0
-2 -4 1 -10z" />
    <path d="M1637 2434 c-8 -8 1 -24 14 -24 5 0 9 7 9 15 0 15 -12 20 -23 9z" />
    <path d="M2387 2434 c-8 -8 1 -24 14 -24 5 0 9 7 9 15 0 15 -12 20 -23 9z" />
    <path d="M3384 2428 l-7 -11 11 7 c7 4 12 9 12 12 0 8 -9 4 -16 -8z" />
    <path d="M1573 2423 c4 -3 10 -3 14 0 3 4 0 7 -7 7 -7 0 -10 -3 -7 -7z" />
    <path d="M1883 2423 c4 -3 10 -3 14 0 3 4 0 7 -7 7 -7 0 -10 -3 -7 -7z" />
    <path d="M2133 2423 c4 -3 10 -3 14 0 3 4 0 7 -7 7 -7 0 -10 -3 -7 -7z" />
    <path d="M2323 2423 c4 -3 10 -3 14 0 3 4 0 7 -7 7 -7 0 -10 -3 -7 -7z" />
    <path d="M1803 2413 c4 -3 10 -3 14 0 3 4 0 7 -7 7 -7 0 -10 -3 -7 -7z" />
    <path d="M2053 2413 c4 -3 10 -3 14 0 3 4 0 7 -7 7 -7 0 -10 -3 -7 -7z" />
  </g>
  <g transform="translate(0.000000,500.000000) scale(0.100000,-0.100000)" fill="#1e1c1c" stroke="none">
    <path d="M1577 2589 c7 -7 15 -10 18 -7 3 3 -2 9 -12 12 l-18 7 12 -12z" />
    <path d="M1644 2583 c2 -10 6 -17 10 -16 15 3 16 11 2 22 l-14 12 2 -18z" />
    <path d="M1825 2590 c3 -5 8 -10 11 -10 3 0 2 5 -1 10 -3 6 -8 10 -11 10 -3 0
-2 -4 1 -10z" />
    <path d="M1884 2588 l-7 -11 11 7 c7 4 12 9 12 12 0 8 -9 4 -16 -8z" />
    <path d="M2075 2590 c3 -5 8 -10 11 -10 3 0 2 5 -1 10 -3 6 -8 10 -11 10 -3 0
-2 -4 1 -10z" />
    <path d="M2134 2588 l-7 -11 11 7 c7 4 12 9 12 12 0 8 -9 4 -16 -8z" />
    <path d="M2327 2589 c7 -7 15 -10 18 -7 3 3 -2 9 -12 12 l-18 7 12 -12z" />
    <path d="M2394 2583 c2 -10 6 -17 10 -16 15 3 16 11 2 22 l-14 12 2 -18z" />
    <path d="M3300 2570 c-8 -5 -11 -12 -7 -16 4 -4 13 -2 19 4 15 15 7 24 -12 12z" />
    <path d="M3420 2571 c0 -5 7 -11 15 -15 8 -3 15 -1 15 3 0 5 -7 11 -15 15 -8
3 -15 1 -15 -3z" />
    <path d="M1914 2558 l-7 -11 11 7 c7 4 12 9 12 12 0 8 -9 4 -16 -8z" />
    <path d="M2164 2558 l-7 -11 11 7 c7 4 12 9 12 12 0 8 -9 4 -16 -8z" />
    <path d="M3330 2479 c0 -5 5 -7 10 -4 6 3 10 8 10 11 0 2 -4 4 -10 4 -5 0 -10
-5 -10 -11z" />
    <path d="M3395 2480 c3 -5 8 -10 11 -10 2 0 4 5 4 10 0 6 -5 10 -11 10 -5 0
-7 -4 -4 -10z" />
    <path d="M1535 2459 c-4 -6 -5 -12 -2 -15 2 -3 7 2 10 11 7 17 1 20 -8 4z" />
    <path d="M1784 2459 c-3 -6 -2 -15 4 -21 l10 -10 7 13 8 12 -13 -8 -13 -8 6
16 c7 19 2 23 -9 6z" />
    <path d="M2034 2459 c-3 -6 -2 -15 4 -21 l10 -10 7 13 8 12 -13 -8 -13 -8 6
16 c7 19 2 23 -9 6z" />
    <path d="M2285 2459 c-4 -6 -5 -12 -2 -15 2 -3 7 2 10 11 7 17 1 20 -8 4z" />
    <path d="M3347 2463 c-4 -3 -7 -11 -7 -17 l0 -10 12 12 c6 6 9 14 7 17 -3 3
-9 2 -12 -2z" />
    <path d="M3380 2460 c0 -5 5 -10 11 -10 5 0 7 5 4 10 -3 6 -8 10 -11 10 -2 0
-4 -4 -4 -10z" />
    <path d="M1912 2443 l3 -18 -13 3 -13 2 6 -10 7 -11 13 11 c8 6 11 18 8 26 -7
20 -14 18 -11 -3z" />
    <path d="M2162 2443 l3 -18 -13 3 -13 2 6 -10 7 -11 13 11 c8 6 11 18 8 26 -7
20 -14 18 -11 -3z" />
    <path d="M3356 2432 c-2 -4 4 -8 14 -8 10 0 16 4 14 8 -3 4 -9 8 -14 8 -5 0
-11 -4 -14 -8z" />
    <path d="M1564 2418 l-7 -11 11 7 c12 7 16 16 8 16 -3 0 -8 -5 -12 -12z" />
    <path d="M2314 2418 l-7 -11 11 7 c12 7 16 16 8 16 -3 0 -8 -5 -12 -12z" />
  </g>
  <g transform="translate(0.000000,500.000000) scale(0.100000,-0.100000)" fill="#32302f" stroke="none">
    <path d="M1922 2500 c0 -14 2 -19 5 -12 2 6 2 18 0 25 -3 6 -5 1 -5 -13z" />
    <path d="M2172 2500 c0 -14 2 -19 5 -12 2 6 2 18 0 25 -3 6 -5 1 -5 -13z" />
    <path d="M3334 2478 l-7 -11 11 7 c7 4 12 9 12 12 0 8 -9 4 -16 -8z" />
    <path d="M3395 2480 c3 -5 8 -10 11 -10 3 0 2 5 -1 10 -3 6 -8 10 -11 10 -3 0
-2 -4 1 -10z" />
    <path d="M1790 2470 c0 -7 3 -10 7 -7 3 4 3 10 0 14 -4 3 -7 0 -7 -7z" />
    <path d="M2040 2470 c0 -7 3 -10 7 -7 3 4 3 10 0 14 -4 3 -7 0 -7 -7z" />
    <path d="M3345 2459 c-4 -6 -5 -12 -2 -15 2 -3 7 2 10 11 7 17 1 20 -8 4z" />
    <path d="M3385 2460 c3 -5 8 -10 11 -10 3 0 2 5 -1 10 -3 6 -8 10 -11 10 -3 0
-2 -4 1 -10z" />
    <path d="M1544 2438 l-7 -11 11 7 c12 7 16 16 8 16 -3 0 -8 -5 -12 -12z" />
    <path d="M2294 2438 l-7 -11 11 7 c7 4 12 9 12 12 0 8 -9 4 -16 -8z" />
    <path d="M1671 2414 l1 -19 5 13 c3 7 2 16 -1 19 -3 4 -6 -2 -5 -13z" />
    <path d="M1814 2418 l-7 -11 11 7 c12 7 16 16 8 16 -3 0 -8 -5 -12 -12z" />
    <path d="M2064 2418 l-7 -11 11 7 c7 4 12 9 12 12 0 8 -9 4 -16 -8z" />
    <path d="M2421 2414 l1 -19 5 13 c3 7 2 16 -1 19 -3 4 -6 -2 -5 -13z" />
  </g>
  <g transform="translate(0.000000,500.000000) scale(0.100000,-0.100000)" fill="#5b5857" stroke="none">
    <path d="M1873 2583 c4 -3 10 -3 14 0 3 4 0 7 -7 7 -7 0 -10 -3 -7 -7z" />
    <path d="M2123 2583 c4 -3 10 -3 14 0 3 4 0 7 -7 7 -7 0 -10 -3 -7 -7z" />
    <path d="M3300 2565 l-12 -15 10 0 c5 0 12 7 16 15 3 8 4 15 2 15 -2 0 -9 -7
-16 -15z" />
    <path d="M1535 2440 c3 -5 8 -10 11 -10 3 0 2 5 -1 10 -3 6 -8 10 -11 10 -3 0
-2 -4 1 -10z" />
    <path d="M2285 2440 c3 -5 8 -10 11 -10 3 0 2 5 -1 10 -3 6 -8 10 -11 10 -3 0
-2 -4 1 -10z" />
    <path d="M1635 2420 c3 -5 8 -10 11 -10 3 0 2 5 -1 10 -3 6 -8 10 -11 10 -3 0
-2 -4 1 -10z" />
    <path d="M2385 2420 c3 -5 8 -10 11 -10 3 0 2 5 -1 10 -3 6 -8 10 -11 10 -3 0
-2 -4 1 -10z" />
    <path d="M1567 2409 c7 -7 15 -10 18 -7 3 3 -2 9 -12 12 l-18 7 12 -12z" />
    <path d="M2317 2409 c7 -7 15 -10 18 -7 3 3 -2 9 -12 12 l-18 7 12 -12z" />
  </g>
  <g transform="translate(0.000000,500.000000) scale(0.100000,-0.100000)" fill="#0d0c0c" stroke="none">
    <path d="M1646 2423 l-7 -18 12 12 c7 7 10 15 7 18 -3 3 -9 -2 -12 -12z" />
    <path d="M2396 2423 l-7 -18 12 12 c7 7 10 15 7 18 -3 3 -9 -2 -12 -12z" />
  </g>
</svg>